<svg width="56" height="45" viewBox="0 0 56 45" fill="none" xmlns="http://www.w3.org/2000/svg">
<path d="M5.82422 37.0647L7.47427 35.0407C7.80266 34.6506 7.97431 34.1389 7.95232 33.6154V33.2829C7.95232 32.5446 7.59025 32.1429 6.88308 32.1429H1.50862C1.30857 32.1429 1.1167 32.2275 0.975243 32.3782C0.833782 32.5289 0.75431 32.7333 0.75431 32.9464V34.5536C0.75431 34.7667 0.833782 34.9711 0.975243 35.1218C1.1167 35.2725 1.30857 35.3571 1.50862 35.3571H3.66123C3.29544 35.7497 2.94924 36.1624 2.62406 36.5936L2.0951 37.2968C1.71794 37.806 1.60008 38.3143 1.83109 38.7914L1.93009 38.9853C2.21296 39.5638 2.52317 39.7768 3.08513 39.7768H3.53112C4.50512 39.7768 5.03408 40.0219 5.03408 40.6898C5.03408 41.1639 4.63807 41.5155 3.68009 41.5155C3.17954 41.5113 2.68439 41.4049 2.22144 41.2021C1.60951 40.8124 1.11449 40.8506 0.750539 41.5155L0.223464 42.4507C-0.12729 43.0664 -0.0773168 43.6279 0.471444 44.0518C1.19841 44.5229 2.39305 45 3.96013 45C7.18103 45 8.53314 42.7148 8.53314 40.5683C8.53031 39.1239 7.67322 37.579 5.82422 37.0647ZM46.7672 19.2857H16.5948C16.1947 19.2857 15.811 19.455 15.5281 19.7564C15.2451 20.0578 15.0862 20.4666 15.0862 20.8929V24.1071C15.0862 24.5334 15.2451 24.9422 15.5281 25.2436C15.811 25.545 16.1947 25.7143 16.5948 25.7143H46.7672C47.1674 25.7143 47.5511 25.545 47.834 25.2436C48.1169 24.9422 48.2759 24.5334 48.2759 24.1071V20.8929C48.2759 20.4666 48.1169 20.0578 47.834 19.7564C47.5511 19.455 47.1674 19.2857 46.7672 19.2857ZM46.7672 3.21429H16.5948C16.1947 3.21429 15.811 3.38361 15.5281 3.68501C15.2451 3.9864 15.0862 4.39519 15.0862 4.82143V8.03571C15.0862 8.46196 15.2451 8.87074 15.5281 9.17214C15.811 9.47353 16.1947 9.64286 16.5948 9.64286H46.7672C47.1674 9.64286 47.5511 9.47353 47.834 9.17214C48.1169 8.87074 48.2759 8.46196 48.2759 8.03571V4.82143C48.2759 4.39519 48.1169 3.9864 47.834 3.68501C47.5511 3.38361 47.1674 3.21429 46.7672 3.21429ZM46.7672 35.3571H16.5948C16.1947 35.3571 15.811 35.5265 15.5281 35.8279C15.2451 36.1293 15.0862 36.538 15.0862 36.9643V40.1786C15.0862 40.6048 15.2451 41.0136 15.5281 41.315C15.811 41.6164 16.1947 41.7857 16.5948 41.7857H46.7672C47.1674 41.7857 47.5511 41.6164 47.834 41.315C48.1169 41.0136 48.2759 40.6048 48.2759 40.1786V36.9643C48.2759 36.538 48.1169 36.1293 47.834 35.8279C47.5511 35.5265 47.1674 35.3571 46.7672 35.3571ZM1.50862 12.8571H7.5431C7.74316 12.8571 7.93502 12.7725 8.07648 12.6218C8.21794 12.4711 8.29741 12.2667 8.29741 12.0536V10.4464C8.29741 10.2333 8.21794 10.0289 8.07648 9.87822C7.93502 9.72752 7.74316 9.64286 7.5431 9.64286H6.03448V0.803571C6.03448 0.590451 5.95501 0.38606 5.81355 0.235361C5.67209 0.0846619 5.48023 0 5.28017 0H3.01724C2.87743 0.000265828 2.74043 0.041923 2.62155 0.120321C2.50267 0.198719 2.40659 0.310773 2.34402 0.443973L1.58971 2.05112C1.53221 2.17352 1.50502 2.30954 1.5107 2.44628C1.51639 2.58302 1.55477 2.71595 1.6222 2.83246C1.68964 2.94897 1.78389 3.04519 1.89602 3.11202C2.00815 3.17884 2.13445 3.21404 2.26293 3.21429H3.01724V9.64286H1.50862C1.30857 9.64286 1.1167 9.72752 0.975243 9.87822C0.833782 10.0289 0.75431 10.2333 0.75431 10.4464V12.0536C0.75431 12.2667 0.833782 12.4711 0.975243 12.6218C1.1167 12.7725 1.30857 12.8571 1.50862 12.8571ZM1.13995 28.9286H7.5431C7.74316 28.9286 7.93502 28.8439 8.07648 28.6932C8.21794 28.5425 8.29741 28.3381 8.29741 28.125V26.5179C8.29741 26.3047 8.21794 26.1003 8.07648 25.9496C7.93502 25.7989 7.74316 25.7143 7.5431 25.7143H3.89601C4.20622 24.6807 8.45393 23.8379 8.45393 20.0451C8.45393 17.1261 6.09671 16.0714 4.26091 16.0714C2.2469 16.0714 1.07395 17.0759 0.445986 17.9548C0.033944 18.5163 0.16312 19.0436 0.709995 19.4987L1.51899 20.1897C2.04795 20.6478 2.55617 20.4378 3.03893 19.9446C3.27705 19.6961 3.59752 19.5575 3.9309 19.5589C4.24488 19.5589 4.8059 19.7156 4.8059 20.4378C4.80873 21.7155 0 22.6316 0 27.3807V27.7825C0 28.5268 0.478987 28.9286 1.13995 28.9286Z" fill="#B9CDC9"/>
<path d="M35.9458 40.3416L35.9458 40.3416L25.9044 30.4795C25.5006 30.083 25.5006 29.4438 25.9044 29.0472C25.9044 29.0472 25.9044 29.0472 25.9044 29.0472L28.089 26.9015L28.0891 26.9015C28.4978 26.5 29.1643 26.5 29.573 26.9015L29.5731 26.9015L36.3374 33.545L36.6878 33.8891L37.0381 33.545L51.5266 19.3153L51.1763 18.9585L51.5266 19.3153C51.9354 18.9138 52.6019 18.9138 53.0106 19.3153L55.1953 21.461L55.5457 21.1043L55.1953 21.461C55.599 21.8575 55.5991 22.4967 55.1953 22.8933L37.4298 40.3416C37.4298 40.3416 37.4298 40.3416 37.4298 40.3416C37.0209 40.7431 36.3545 40.7431 35.9458 40.3416Z" stroke="#B9CDC9"/>
</svg>
