<svg width="566" height="516" viewBox="0 0 566 516" fill="none" xmlns="http://www.w3.org/2000/svg">
<path d="M306 92.25H308V90.25H306V92.25ZM258.75 92.25V90.25H256.75V92.25H258.75ZM258.75 116.25H256.75V118.25H258.75V116.25ZM282 116.25H284V114.25H282V116.25ZM282 257H280V259H282V257ZM306 257V259H308V257H306ZM306 90.25H258.75V94.25H306V90.25ZM256.75 92.25V116.25H260.75V92.25H256.75ZM258.75 118.25H282V114.25H258.75V118.25ZM280 116.25V257H284V116.25H280ZM282 259H306V255H282V259ZM308 257V116.25H304V257H308ZM308 116.25V92.25H304V116.25H308Z" fill="url(#paint0_radial_371_6)"/>
<rect x="56.2426" y="233.9" width="324.785" height="324.78" transform="rotate(-45 56.2426 233.9)" stroke="url(#paint1_linear_371_6)" stroke-width="6"/>
<path d="M237.635 461.549L237.637 461.547L244.984 454.546C247.848 451.817 252.485 451.82 255.313 454.544L255.315 454.546L286.655 484.408L287 484.737L287.345 484.408L318.685 454.546C321.549 451.817 326.185 451.82 329.014 454.544L329.016 454.546L336.363 461.547C339.213 464.263 339.211 468.64 336.365 471.323L336.363 471.324L292.149 513.454L292.149 513.454L292.145 513.458C289.351 516.179 284.716 516.184 281.851 513.454L237.637 471.324C234.787 468.608 234.789 464.231 237.635 461.549L237.635 461.549Z" stroke="url(#paint2_linear_371_6)"/>
<path d="M54.4513 184.635L54.4531 184.637L61.4541 191.984C64.183 194.848 64.1804 199.485 61.4559 202.313L61.4541 202.315L31.5915 233.655L31.2629 234L31.5915 234.345L61.4541 265.685C64.183 268.549 64.1804 273.185 61.4559 276.014L61.4541 276.016L54.4531 283.363C51.7372 286.213 47.36 286.211 44.6775 283.365L44.6756 283.363L2.54591 239.149L2.54593 239.149L2.54218 239.145C-0.178726 236.351 -0.183983 231.716 2.54591 228.851L44.6756 184.637C47.3916 181.787 51.7688 181.789 54.4513 184.635L54.4513 184.635Z" stroke="url(#paint3_radial_371_6)"/>
<path d="M511.549 283.365L511.547 283.363L504.546 276.016C501.817 273.152 501.82 268.515 504.544 265.687L504.546 265.685L534.408 234.345L534.737 234L534.408 233.655L504.546 202.315C501.817 199.451 501.82 194.815 504.544 191.986L504.546 191.984L511.547 184.637C514.263 181.787 518.64 181.789 521.323 184.635L521.324 184.637L563.454 228.851L563.454 228.851L563.458 228.855C566.179 231.649 566.184 236.284 563.454 239.149L521.324 283.363C518.608 286.213 514.231 286.211 511.549 283.365L511.549 283.365Z" stroke="url(#paint4_linear_371_6)"/>
<path d="M89 268H483L393 359H175L89 268Z" fill="url(#paint5_linear_371_6)"/>
<path d="M219.952 302.8C222.384 301.861 224.752 300.667 227.056 299.216C229.36 297.723 231.472 295.867 233.392 293.648H237.616V338H231.664V301.904C231.152 302.373 230.512 302.864 229.744 303.376C229.019 303.888 228.208 304.379 227.312 304.848C226.459 305.317 225.541 305.765 224.56 306.192C223.621 306.619 222.704 306.981 221.808 307.28L219.952 302.8ZM253.325 315.792C253.325 308.368 254.626 302.651 257.229 298.64C259.874 294.629 263.522 292.624 268.173 292.624C272.824 292.624 276.45 294.629 279.053 298.64C281.698 302.651 283.021 308.368 283.021 315.792C283.021 323.216 281.698 328.933 279.053 332.944C276.45 336.955 272.824 338.96 268.173 338.96C263.522 338.96 259.874 336.955 257.229 332.944C254.626 328.933 253.325 323.216 253.325 315.792ZM276.749 315.792C276.749 313.36 276.6 311.056 276.301 308.88C276.045 306.704 275.576 304.805 274.893 303.184C274.253 301.563 273.378 300.283 272.269 299.344C271.16 298.363 269.794 297.872 268.173 297.872C266.552 297.872 265.186 298.363 264.077 299.344C262.968 300.283 262.072 301.563 261.389 303.184C260.749 304.805 260.28 306.704 259.981 308.88C259.725 311.056 259.597 313.36 259.597 315.792C259.597 318.224 259.725 320.528 259.981 322.704C260.28 324.88 260.749 326.779 261.389 328.4C262.072 330.021 262.968 331.323 264.077 332.304C265.186 333.243 266.552 333.712 268.173 333.712C269.794 333.712 271.16 333.243 272.269 332.304C273.378 331.323 274.253 330.021 274.893 328.4C275.576 326.779 276.045 324.88 276.301 322.704C276.6 320.528 276.749 318.224 276.749 315.792ZM289.45 315.792C289.45 308.368 290.751 302.651 293.354 298.64C295.999 294.629 299.647 292.624 304.298 292.624C308.949 292.624 312.575 294.629 315.178 298.64C317.823 302.651 319.146 308.368 319.146 315.792C319.146 323.216 317.823 328.933 315.178 332.944C312.575 336.955 308.949 338.96 304.298 338.96C299.647 338.96 295.999 336.955 293.354 332.944C290.751 328.933 289.45 323.216 289.45 315.792ZM312.874 315.792C312.874 313.36 312.725 311.056 312.426 308.88C312.17 306.704 311.701 304.805 311.018 303.184C310.378 301.563 309.503 300.283 308.394 299.344C307.285 298.363 305.919 297.872 304.298 297.872C302.677 297.872 301.311 298.363 300.202 299.344C299.093 300.283 298.197 301.563 297.514 303.184C296.874 304.805 296.405 306.704 296.106 308.88C295.85 311.056 295.722 313.36 295.722 315.792C295.722 318.224 295.85 320.528 296.106 322.704C296.405 324.88 296.874 326.779 297.514 328.4C298.197 330.021 299.093 331.323 300.202 332.304C301.311 333.243 302.677 333.712 304.298 333.712C305.919 333.712 307.285 333.243 308.394 332.304C309.503 331.323 310.378 330.021 311.018 328.4C311.701 326.779 312.17 324.88 312.426 322.704C312.725 320.528 312.874 318.224 312.874 315.792ZM325.575 315.792C325.575 308.368 326.876 302.651 329.479 298.64C332.124 294.629 335.772 292.624 340.423 292.624C345.074 292.624 348.7 294.629 351.303 298.64C353.948 302.651 355.271 308.368 355.271 315.792C355.271 323.216 353.948 328.933 351.303 332.944C348.7 336.955 345.074 338.96 340.423 338.96C335.772 338.96 332.124 336.955 329.479 332.944C326.876 328.933 325.575 323.216 325.575 315.792ZM348.999 315.792C348.999 313.36 348.85 311.056 348.551 308.88C348.295 306.704 347.826 304.805 347.143 303.184C346.503 301.563 345.628 300.283 344.519 299.344C343.41 298.363 342.044 297.872 340.423 297.872C338.802 297.872 337.436 298.363 336.327 299.344C335.218 300.283 334.322 301.563 333.639 303.184C332.999 304.805 332.53 306.704 332.231 308.88C331.975 311.056 331.847 313.36 331.847 315.792C331.847 318.224 331.975 320.528 332.231 322.704C332.53 324.88 332.999 326.779 333.639 328.4C334.322 330.021 335.218 331.323 336.327 332.304C337.436 333.243 338.802 333.712 340.423 333.712C342.044 333.712 343.41 333.243 344.519 332.304C345.628 331.323 346.503 330.021 347.143 328.4C347.826 326.779 348.295 324.88 348.551 322.704C348.85 320.528 348.999 318.224 348.999 315.792Z" fill="#0A1E3C" fill-opacity="0.97"/>
<defs>
<radialGradient id="paint0_radial_371_6" cx="0" cy="0" r="1" gradientUnits="userSpaceOnUse" gradientTransform="translate(247 69) rotate(71.1975) scale(223.39 448.512)">
<stop stop-color="#D9F0B6"/>
<stop offset="0.506695" stop-color="#FFC1C3"/>
<stop offset="1" stop-color="#699EFF"/>
</radialGradient>
<linearGradient id="paint1_linear_371_6" x1="26.4737" y1="259.427" x2="422.074" y2="340.845" gradientUnits="userSpaceOnUse">
<stop offset="0.0719578" stop-color="#54DDBA"/>
<stop offset="1" stop-color="#4D114F"/>
</linearGradient>
<linearGradient id="paint2_linear_371_6" x1="287" y1="452" x2="287" y2="516" gradientUnits="userSpaceOnUse">
<stop stop-color="#A292FF"/>
<stop offset="1" stop-color="#FFC2E8"/>
</linearGradient>
<radialGradient id="paint3_radial_371_6" cx="0" cy="0" r="1" gradientUnits="userSpaceOnUse" gradientTransform="translate(64 182) rotate(120.835) scale(121.121 350.787)">
<stop stop-color="#D9F0B6"/>
<stop offset="0.506695" stop-color="#FFC1C3"/>
<stop offset="1" stop-color="#699EFF"/>
</radialGradient>
<linearGradient id="paint4_linear_371_6" x1="502" y1="234" x2="566" y2="234" gradientUnits="userSpaceOnUse">
<stop stop-color="#A292FF"/>
<stop offset="1" stop-color="#FFC2E8"/>
</linearGradient>
<linearGradient id="paint5_linear_371_6" x1="-217.299" y1="176.789" x2="77.5096" y2="622.101" gradientUnits="userSpaceOnUse">
<stop offset="0.0719578" stop-color="#54DDBA"/>
<stop offset="1" stop-color="#4D114F"/>
</linearGradient>
</defs>
</svg>
