<svg width="566" height="525" viewBox="0 0 566 525" fill="none" xmlns="http://www.w3.org/2000/svg">
<rect x="47.7574" y="242.9" width="336.785" height="336.78" transform="rotate(-45 47.7574 242.9)" stroke="url(#paint0_linear_371_30)" stroke-width="6"/>
<path d="M237.635 470.549L237.637 470.547L244.984 463.546C247.848 460.817 252.485 460.82 255.313 463.544L255.315 463.546L286.655 493.408L287 493.737L287.345 493.408L318.685 463.546C321.549 460.817 326.185 460.82 329.014 463.544L329.016 463.546L336.363 470.547C339.213 473.263 339.211 477.64 336.365 480.323L336.363 480.324L292.149 522.454L292.149 522.454L292.145 522.458C289.351 525.179 284.716 525.184 281.851 522.454L237.637 480.324C234.787 477.608 234.789 473.231 237.635 470.549L237.635 470.549Z" stroke="url(#paint1_radial_371_30)"/>
<path d="M54.4513 193.635L54.4531 193.637L61.4541 200.984C64.183 203.848 64.1804 208.485 61.4559 211.313L61.4541 211.315L31.5916 242.655L31.2629 243L31.5916 243.345L61.4541 274.685C64.183 277.549 64.1804 282.185 61.4559 285.014L61.4541 285.016L54.4531 292.363C51.7372 295.213 47.36 295.211 44.6775 292.365L44.6756 292.363L2.54591 248.149L2.54594 248.149L2.54219 248.145C-0.178719 245.351 -0.183975 240.716 2.54591 237.851L44.6756 193.637C47.3916 190.787 51.7688 190.789 54.4513 193.635L54.4513 193.635Z" stroke="url(#paint2_radial_371_30)"/>
<path d="M511.549 292.365L511.547 292.363L504.546 285.016C501.817 282.152 501.82 277.515 504.544 274.687L504.546 274.685L534.408 243.345L534.737 243L534.408 242.655L504.546 211.315C501.817 208.451 501.82 203.815 504.544 200.986L504.546 200.984L511.547 193.637C514.263 190.787 518.64 190.789 521.323 193.635L521.324 193.637L563.454 237.851L563.454 237.851L563.458 237.855C566.179 240.649 566.184 245.284 563.454 248.149L521.324 292.363C518.608 295.213 514.231 295.211 511.549 292.365L511.549 292.365Z" stroke="url(#paint3_radial_371_30)"/>
<path d="M89 277H483L393 368H175L89 277Z" fill="url(#paint4_linear_371_30)"/>
<path d="M259.888 311.976C259.888 313.512 259.568 315.005 258.928 316.456C258.331 317.864 257.52 319.272 256.496 320.68C255.472 322.045 254.32 323.411 253.04 324.776C251.76 326.099 250.48 327.4 249.2 328.68C248.475 329.405 247.621 330.259 246.64 331.24C245.701 332.221 244.805 333.245 243.952 334.312C243.099 335.379 242.373 336.403 241.776 337.384C241.221 338.365 240.944 339.219 240.944 339.944H261.36V345H234.48C234.437 344.744 234.416 344.488 234.416 344.232C234.416 343.976 234.416 343.741 234.416 343.528C234.416 341.523 234.736 339.667 235.376 337.96C236.059 336.211 236.933 334.568 238 333.032C239.067 331.496 240.261 330.045 241.584 328.68C242.907 327.315 244.208 325.992 245.488 324.712C246.555 323.688 247.557 322.685 248.496 321.704C249.477 320.68 250.331 319.677 251.056 318.696C251.824 317.672 252.421 316.627 252.848 315.56C253.317 314.493 253.552 313.363 253.552 312.168C253.552 310.888 253.339 309.8 252.912 308.904C252.528 308.008 251.995 307.261 251.312 306.664C250.629 306.067 249.819 305.64 248.88 305.384C247.984 305.085 247.024 304.936 246 304.936C244.763 304.936 243.632 305.107 242.608 305.448C241.584 305.789 240.667 306.195 239.856 306.664C239.045 307.091 238.363 307.56 237.808 308.072C237.253 308.541 236.827 308.904 236.528 309.16L233.584 304.936C233.968 304.509 234.544 303.997 235.312 303.4C236.08 302.76 236.997 302.163 238.064 301.608C239.131 301.053 240.325 300.584 241.648 300.2C242.971 299.816 244.4 299.624 245.936 299.624C250.587 299.624 254.064 300.712 256.368 302.888C258.715 305.021 259.888 308.051 259.888 311.976ZM269.325 322.792C269.325 315.368 270.626 309.651 273.229 305.64C275.874 301.629 279.522 299.624 284.173 299.624C288.824 299.624 292.45 301.629 295.053 305.64C297.698 309.651 299.021 315.368 299.021 322.792C299.021 330.216 297.698 335.933 295.053 339.944C292.45 343.955 288.824 345.96 284.173 345.96C279.522 345.96 275.874 343.955 273.229 339.944C270.626 335.933 269.325 330.216 269.325 322.792ZM292.749 322.792C292.749 320.36 292.6 318.056 292.301 315.88C292.045 313.704 291.576 311.805 290.893 310.184C290.253 308.563 289.378 307.283 288.269 306.344C287.16 305.363 285.794 304.872 284.173 304.872C282.552 304.872 281.186 305.363 280.077 306.344C278.968 307.283 278.072 308.563 277.389 310.184C276.749 311.805 276.28 313.704 275.981 315.88C275.725 318.056 275.597 320.36 275.597 322.792C275.597 325.224 275.725 327.528 275.981 329.704C276.28 331.88 276.749 333.779 277.389 335.4C278.072 337.021 278.968 338.323 280.077 339.304C281.186 340.243 282.552 340.712 284.173 340.712C285.794 340.712 287.16 340.243 288.269 339.304C289.378 338.323 290.253 337.021 290.893 335.4C291.576 333.779 292.045 331.88 292.301 329.704C292.6 327.528 292.749 325.224 292.749 322.792ZM305.45 322.792C305.45 315.368 306.751 309.651 309.354 305.64C311.999 301.629 315.647 299.624 320.298 299.624C324.949 299.624 328.575 301.629 331.178 305.64C333.823 309.651 335.146 315.368 335.146 322.792C335.146 330.216 333.823 335.933 331.178 339.944C328.575 343.955 324.949 345.96 320.298 345.96C315.647 345.96 311.999 343.955 309.354 339.944C306.751 335.933 305.45 330.216 305.45 322.792ZM328.874 322.792C328.874 320.36 328.725 318.056 328.426 315.88C328.17 313.704 327.701 311.805 327.018 310.184C326.378 308.563 325.503 307.283 324.394 306.344C323.285 305.363 321.919 304.872 320.298 304.872C318.677 304.872 317.311 305.363 316.202 306.344C315.093 307.283 314.197 308.563 313.514 310.184C312.874 311.805 312.405 313.704 312.106 315.88C311.85 318.056 311.722 320.36 311.722 322.792C311.722 325.224 311.85 327.528 312.106 329.704C312.405 331.88 312.874 333.779 313.514 335.4C314.197 337.021 315.093 338.323 316.202 339.304C317.311 340.243 318.677 340.712 320.298 340.712C321.919 340.712 323.285 340.243 324.394 339.304C325.503 338.323 326.378 337.021 327.018 335.4C327.701 333.779 328.17 331.88 328.426 329.704C328.725 327.528 328.874 325.224 328.874 322.792Z" fill="#0A1E3C" fill-opacity="0.97"/>
<path d="M324.75 105V103H322.75V105H324.75ZM324.75 175.75V177.75H326.75V175.75H324.75ZM239.75 175.75H237.75V177.75H239.75V175.75ZM239.75 105H241.75V103H239.75V105ZM215.75 105V103H213.75V105H215.75ZM215.75 199.5H213.75V201.5H215.75V199.5ZM324.75 199.5H326.75V197.5H324.75V199.5ZM324.75 270H322.75V272H324.75V270ZM348.75 270V272H350.75V270H348.75ZM348.75 105H350.75V103H348.75V105ZM322.75 105V175.75H326.75V105H322.75ZM324.75 173.75H239.75V177.75H324.75V173.75ZM241.75 175.75V105H237.75V175.75H241.75ZM239.75 103H215.75V107H239.75V103ZM213.75 105V199.5H217.75V105H213.75ZM215.75 201.5H324.75V197.5H215.75V201.5ZM322.75 199.5V270H326.75V199.5H322.75ZM324.75 272H348.75V268H324.75V272ZM350.75 270V105H346.75V270H350.75ZM348.75 103H324.75V107H348.75V103Z" fill="url(#paint5_radial_371_30)"/>
<defs>
<linearGradient id="paint0_linear_371_30" x1="-1.10345" y1="407.727" x2="355.683" y2="371.807" gradientUnits="userSpaceOnUse">
<stop offset="0.150291" stop-color="#54DDBA"/>
<stop offset="1" stop-color="#4D114F"/>
</linearGradient>
<radialGradient id="paint1_radial_371_30" cx="0" cy="0" r="1" gradientUnits="userSpaceOnUse" gradientTransform="translate(235 461) rotate(30.835) scale(121.121 350.787)">
<stop stop-color="#D9F0B6"/>
<stop offset="0.506695" stop-color="#FFC1C3"/>
<stop offset="1" stop-color="#699EFF"/>
</radialGradient>
<radialGradient id="paint2_radial_371_30" cx="0" cy="0" r="1" gradientUnits="userSpaceOnUse" gradientTransform="translate(64 191) rotate(120.835) scale(121.121 350.787)">
<stop stop-color="#D9F0B6"/>
<stop offset="0.506695" stop-color="#FFC1C3"/>
<stop offset="1" stop-color="#699EFF"/>
</radialGradient>
<radialGradient id="paint3_radial_371_30" cx="0" cy="0" r="1" gradientUnits="userSpaceOnUse" gradientTransform="translate(502 295) rotate(-59.165) scale(121.121 350.787)">
<stop stop-color="#D9F0B6"/>
<stop offset="0.506695" stop-color="#FFC1C3"/>
<stop offset="1" stop-color="#699EFF"/>
</radialGradient>
<linearGradient id="paint4_linear_371_30" x1="-217.299" y1="185.789" x2="77.5096" y2="631.101" gradientUnits="userSpaceOnUse">
<stop offset="0.0719578" stop-color="#54DDBA"/>
<stop offset="1" stop-color="#4D114F"/>
</linearGradient>
<radialGradient id="paint5_radial_371_30" cx="0" cy="0" r="1" gradientUnits="userSpaceOnUse" gradientTransform="translate(204 82) rotate(53.4088) scale(263.378 829.517)">
<stop stop-color="#D9F0B6"/>
<stop offset="0.506695" stop-color="#FFC1C3"/>
<stop offset="1" stop-color="#699EFF"/>
</radialGradient>
</defs>
</svg>
