<svg width="566" height="526" viewBox="0 0 566 526" fill="none" xmlns="http://www.w3.org/2000/svg">
<rect x="47.0503" y="243.9" width="337.785" height="337.78" transform="rotate(-45 47.0503 243.9)" stroke="url(#paint0_linear_371_22)" stroke-width="7"/>
<path d="M237.635 471.549L237.637 471.547L244.984 464.546C247.848 461.817 252.485 461.82 255.313 464.544L255.315 464.546L286.655 494.408L287 494.737L287.345 494.408L318.685 464.546C321.549 461.817 326.185 461.82 329.014 464.544L329.016 464.546L336.363 471.547C339.213 474.263 339.211 478.64 336.365 481.323L336.363 481.324L292.149 523.454L292.149 523.454L292.145 523.458C289.351 526.179 284.716 526.184 281.851 523.454L237.637 481.324C234.787 478.608 234.789 474.231 237.635 471.549L237.635 471.549Z" stroke="url(#paint1_radial_371_22)"/>
<path d="M54.4513 194.635L54.4531 194.637L61.4541 201.984C64.183 204.848 64.1804 209.485 61.4559 212.313L61.4541 212.315L31.5916 243.655L31.2629 244L31.5916 244.345L61.4541 275.685C64.183 278.549 64.1804 283.185 61.4559 286.014L61.4541 286.016L54.4531 293.363C51.7372 296.213 47.36 296.211 44.6775 293.365L44.6756 293.363L2.54591 249.149L2.54594 249.149L2.54219 249.145C-0.178719 246.351 -0.183975 241.716 2.54591 238.851L44.6756 194.637C47.3916 191.787 51.7688 191.789 54.4513 194.635L54.4513 194.635Z" stroke="url(#paint2_radial_371_22)"/>
<path d="M511.549 293.365L511.547 293.363L504.546 286.016C501.817 283.152 501.82 278.515 504.544 275.687L504.546 275.685L534.408 244.345L534.737 244L534.408 243.655L504.546 212.315C501.817 209.451 501.82 204.815 504.544 201.986L504.546 201.984L511.547 194.637C514.263 191.787 518.64 191.789 521.323 194.635L521.324 194.637L563.454 238.851L563.454 238.851L563.458 238.855C566.179 241.649 566.184 246.284 563.454 249.149L521.324 293.363C518.608 296.213 514.231 296.211 511.549 293.365L511.549 293.365Z" stroke="url(#paint3_radial_371_22)"/>
<path d="M89 278H483L393 369H175L89 278Z" fill="url(#paint4_linear_371_22)"/>
<path d="M256.464 344.648C260.261 344.648 262.971 343.901 264.592 342.408C266.256 340.915 267.088 338.909 267.088 336.392C267.088 334.771 266.747 333.405 266.064 332.296C265.381 331.187 264.485 330.312 263.376 329.672C262.267 328.989 260.965 328.52 259.472 328.264C258.021 327.965 256.528 327.816 254.992 327.816H253.456V322.952H255.568C256.635 322.952 257.723 322.845 258.832 322.632C259.984 322.419 261.029 322.035 261.968 321.48C262.907 320.925 263.675 320.179 264.272 319.24C264.869 318.259 265.168 317.043 265.168 315.592C265.168 314.397 264.955 313.373 264.528 312.52C264.101 311.667 263.525 310.963 262.8 310.408C262.117 309.853 261.307 309.469 260.368 309.256C259.472 309 258.512 308.872 257.488 308.872C255.44 308.872 253.691 309.171 252.24 309.768C250.832 310.365 249.637 310.984 248.656 311.624L246.352 307.08C246.864 306.739 247.504 306.376 248.272 305.992C249.083 305.565 249.979 305.181 250.96 304.84C251.941 304.499 252.987 304.221 254.096 304.008C255.248 303.752 256.443 303.624 257.68 303.624C260.027 303.624 262.053 303.923 263.76 304.52C265.467 305.075 266.875 305.885 267.984 306.952C269.093 307.976 269.925 309.213 270.48 310.664C271.035 312.072 271.312 313.608 271.312 315.272C271.312 317.576 270.651 319.56 269.328 321.224C268.005 322.845 266.405 324.083 264.528 324.936C265.68 325.277 266.789 325.768 267.856 326.408C268.923 327.048 269.84 327.859 270.608 328.84C271.419 329.821 272.059 330.952 272.528 332.232C273.04 333.512 273.296 334.941 273.296 336.52C273.296 338.44 272.955 340.232 272.272 341.896C271.632 343.517 270.608 344.925 269.2 346.12C267.835 347.315 266.107 348.253 264.016 348.936C261.925 349.619 259.451 349.96 256.592 349.96C255.483 349.96 254.331 349.875 253.136 349.704C251.984 349.533 250.896 349.32 249.872 349.064C248.848 348.808 247.952 348.552 247.184 348.296C246.416 348.04 245.861 347.827 245.52 347.656L246.672 342.472C247.397 342.813 248.592 343.261 250.256 343.816C251.963 344.371 254.032 344.648 256.464 344.648ZM281.325 326.792C281.325 319.368 282.626 313.651 285.229 309.64C287.874 305.629 291.522 303.624 296.173 303.624C300.824 303.624 304.45 305.629 307.053 309.64C309.698 313.651 311.021 319.368 311.021 326.792C311.021 334.216 309.698 339.933 307.053 343.944C304.45 347.955 300.824 349.96 296.173 349.96C291.522 349.96 287.874 347.955 285.229 343.944C282.626 339.933 281.325 334.216 281.325 326.792ZM304.749 326.792C304.749 324.36 304.6 322.056 304.301 319.88C304.045 317.704 303.576 315.805 302.893 314.184C302.253 312.563 301.378 311.283 300.269 310.344C299.16 309.363 297.794 308.872 296.173 308.872C294.552 308.872 293.186 309.363 292.077 310.344C290.968 311.283 290.072 312.563 289.389 314.184C288.749 315.805 288.28 317.704 287.981 319.88C287.725 322.056 287.597 324.36 287.597 326.792C287.597 329.224 287.725 331.528 287.981 333.704C288.28 335.88 288.749 337.779 289.389 339.4C290.072 341.021 290.968 342.323 292.077 343.304C293.186 344.243 294.552 344.712 296.173 344.712C297.794 344.712 299.16 344.243 300.269 343.304C301.378 342.323 302.253 341.021 302.893 339.4C303.576 337.779 304.045 335.88 304.301 333.704C304.6 331.528 304.749 329.224 304.749 326.792ZM317.45 326.792C317.45 319.368 318.751 313.651 321.354 309.64C323.999 305.629 327.647 303.624 332.298 303.624C336.949 303.624 340.575 305.629 343.178 309.64C345.823 313.651 347.146 319.368 347.146 326.792C347.146 334.216 345.823 339.933 343.178 343.944C340.575 347.955 336.949 349.96 332.298 349.96C327.647 349.96 323.999 347.955 321.354 343.944C318.751 339.933 317.45 334.216 317.45 326.792ZM340.874 326.792C340.874 324.36 340.725 322.056 340.426 319.88C340.17 317.704 339.701 315.805 339.018 314.184C338.378 312.563 337.503 311.283 336.394 310.344C335.285 309.363 333.919 308.872 332.298 308.872C330.677 308.872 329.311 309.363 328.202 310.344C327.093 311.283 326.197 312.563 325.514 314.184C324.874 315.805 324.405 317.704 324.106 319.88C323.85 322.056 323.722 324.36 323.722 326.792C323.722 329.224 323.85 331.528 324.106 333.704C324.405 335.88 324.874 337.779 325.514 339.4C326.197 341.021 327.093 342.323 328.202 343.304C329.311 344.243 330.677 344.712 332.298 344.712C333.919 344.712 335.285 344.243 336.394 343.304C337.503 342.323 338.378 341.021 339.018 339.4C339.701 337.779 340.17 335.88 340.426 333.704C340.725 331.528 340.874 329.224 340.874 326.792Z" fill="#0A1E3C" fill-opacity="0.97"/>
<path d="M353.25 184.75L351.836 183.336L350.422 184.75L351.836 186.164L353.25 184.75ZM360.75 175L359.025 173.989L359.019 173.998L359.014 174.008L360.75 175ZM360.75 126L362.475 124.989L362.472 124.982L362.468 124.975L360.75 126ZM225.75 102.25V100.25H223.75V102.25H225.75ZM225.75 126H223.75V128H225.75V126ZM322.25 126L322.493 124.015L322.372 124H322.25V126ZM331 172L330.038 170.246L329 170.816V172H331ZM330.75 172.25V170.25H330.196L329.721 170.535L330.75 172.25ZM322.25 175V177H322.416L322.579 176.973L322.25 175ZM239.25 175V173H237.25V175H239.25ZM239.25 198.75H237.25V200.75H239.25V198.75ZM334 198.75L335.169 197.127L334.645 196.75H334V198.75ZM324.75 243.25V245.25H324.97L325.184 245.202L324.75 243.25ZM225.75 243.25V241.25H223.75V243.25H225.75ZM225.75 267H223.75V269H225.75V267ZM322.25 267V269H322.311L322.371 268.996L322.25 267ZM361 243.25L362.721 244.27L362.736 244.243L362.751 244.216L361 243.25ZM363 198.75L361.162 199.538L361.185 199.592L361.211 199.644L363 198.75ZM354.664 186.164C357.783 183.045 360.394 179.655 362.486 175.992L359.014 174.008C357.106 177.345 354.717 180.455 351.836 183.336L354.664 186.164ZM362.475 176.011C366.891 168.479 369.5 159.883 369.5 150.5H365.5C365.5 159.117 363.109 167.021 359.025 173.989L362.475 176.011ZM369.5 150.5C369.5 141.117 366.891 132.521 362.475 124.989L359.025 127.011C363.109 133.979 365.5 141.883 365.5 150.5H369.5ZM362.468 124.975C353.628 110.157 337.745 100.25 319.25 100.25V104.25C336.255 104.25 350.872 113.343 359.032 127.025L362.468 124.975ZM319.25 100.25H225.75V104.25H319.25V100.25ZM223.75 102.25V126H227.75V102.25H223.75ZM225.75 128H322.25V124H225.75V128ZM322.007 127.985C333.254 129.362 341.75 138.76 341.75 150.5H345.75C345.75 136.74 335.746 125.638 322.493 124.015L322.007 127.985ZM341.75 150.5C341.75 158.998 337.167 166.337 330.038 170.246L331.962 173.754C340.333 169.163 345.75 160.502 345.75 150.5H341.75ZM331 172C329 172 329 171.999 329 171.998C329 171.998 329 171.997 329 171.996C329 171.995 329 171.993 329 171.992C329 171.99 329 171.987 329 171.984C329 171.979 329 171.974 329 171.968C329 171.958 329.001 171.947 329.001 171.936C329.002 171.914 329.003 171.892 329.005 171.868C329.008 171.822 329.014 171.769 329.023 171.71C329.041 171.603 329.081 171.429 329.18 171.231C329.283 171.025 329.469 170.758 329.785 170.547C330.114 170.328 330.463 170.25 330.75 170.25V174.25C331.162 174.25 331.605 174.141 332.004 173.875C332.391 173.617 332.623 173.288 332.758 173.019C332.888 172.759 332.943 172.522 332.969 172.368C332.983 172.286 332.99 172.213 332.994 172.153C332.997 172.123 332.998 172.095 332.999 172.069C332.999 172.057 333 172.045 333 172.033C333 172.027 333 172.022 333 172.016C333 172.013 333 172.011 333 172.008C333 172.007 333 172.005 333 172.004C333 172.003 333 172.002 333 172.002C333 172.001 333 172 331 172ZM329.721 170.535C327.549 171.838 324.85 172.539 321.921 173.027L322.579 176.973C325.65 176.461 328.951 175.662 331.779 173.965L329.721 170.535ZM322.25 173H239.25V177H322.25V173ZM237.25 175V198.75H241.25V175H237.25ZM239.25 200.75H334V196.75H239.25V200.75ZM332.831 200.373C338.58 204.512 342.25 211.168 342.25 218.75H346.25C346.25 209.832 341.92 201.988 335.169 197.127L332.831 200.373ZM342.25 218.75C342.25 229.808 334.655 239 324.316 241.298L325.184 245.202C337.345 242.5 346.25 231.692 346.25 218.75H342.25ZM324.75 241.25H225.75V245.25H324.75V241.25ZM223.75 243.25V267H227.75V243.25H223.75ZM225.75 269H316V265H225.75V269ZM316 269C316.002 269 316.005 269 316.007 269C316.01 269 316.012 269 316.015 269C316.017 269 316.02 269 316.022 269C316.024 269 316.027 269 316.029 269C316.032 269 316.034 269 316.037 269C316.039 269 316.041 269 316.044 269C316.046 269 316.049 269 316.051 269C316.054 269 316.056 269 316.058 269C316.061 269 316.063 269 316.066 269C316.068 269 316.071 269 316.073 269C316.075 269 316.078 269 316.08 269C316.083 269 316.085 269 316.087 269C316.09 269 316.092 269 316.095 269C316.097 269 316.1 269 316.102 269C316.104 269 316.107 269 316.109 269C316.112 269 316.114 269 316.116 269C316.119 269 316.121 269 316.124 269C316.126 269 316.129 269 316.131 269C316.133 269 316.136 269 316.138 269C316.141 269 316.143 269 316.145 269C316.148 269 316.15 269 316.153 269C316.155 269 316.157 269 316.16 269C316.162 269 316.165 269 316.167 269C316.169 269 316.172 269 316.174 269C316.177 269 316.179 269 316.181 269C316.184 269 316.186 269 316.189 269C316.191 269 316.193 269 316.196 269C316.198 269 316.2 269 316.203 269C316.205 269 316.208 269 316.21 269C316.212 269 316.215 269 316.217 269C316.22 269 316.222 269 316.224 269C316.227 269 316.229 269 316.232 269C316.234 269 316.236 269 316.239 269C316.241 269 316.243 269 316.246 269C316.248 269 316.251 269 316.253 269C316.255 269 316.258 269 316.26 269C316.262 269 316.265 269 316.267 269C316.27 269 316.272 269 316.274 269C316.277 269 316.279 269 316.281 269C316.284 269 316.286 269 316.289 269C316.291 269 316.293 269 316.296 269C316.298 269 316.3 269 316.303 269C316.305 269 316.307 269 316.31 269C316.312 269 316.315 269 316.317 269C316.319 269 316.322 269 316.324 269C316.326 269 316.329 269 316.331 269C316.333 269 316.336 269 316.338 269C316.34 269 316.343 269 316.345 269C316.348 269 316.35 269 316.352 269C316.355 269 316.357 269 316.359 269C316.362 269 316.364 269 316.366 269C316.369 269 316.371 269 316.373 269C316.376 269 316.378 269 316.38 269C316.383 269 316.385 269 316.387 269C316.39 269 316.392 269 316.394 269C316.397 269 316.399 269 316.402 269C316.404 269 316.406 269 316.409 269C316.411 269 316.413 269 316.416 269C316.418 269 316.42 269 316.423 269C316.425 269 316.427 269 316.43 269C316.432 269 316.434 269 316.437 269C316.439 269 316.441 269 316.444 269C316.446 269 316.448 269 316.451 269C316.453 269 316.455 269 316.458 269C316.46 269 316.462 269 316.465 269C316.467 269 316.469 269 316.471 269C316.474 269 316.476 269 316.478 269C316.481 269 316.483 269 316.485 269C316.488 269 316.49 269 316.492 269C316.495 269 316.497 269 316.499 269C316.502 269 316.504 269 316.506 269C316.509 269 316.511 269 316.513 269C316.516 269 316.518 269 316.52 269C316.522 269 316.525 269 316.527 269C316.529 269 316.532 269 316.534 269C316.536 269 316.539 269 316.541 269C316.543 269 316.546 269 316.548 269C316.55 269 316.552 269 316.555 269C316.557 269 316.559 269 316.562 269C316.564 269 316.566 269 316.569 269C316.571 269 316.573 269 316.575 269C316.578 269 316.58 269 316.582 269C316.585 269 316.587 269 316.589 269C316.592 269 316.594 269 316.596 269C316.598 269 316.601 269 316.603 269C316.605 269 316.608 269 316.61 269C316.612 269 316.614 269 316.617 269C316.619 269 316.621 269 316.624 269C316.626 269 316.628 269 316.631 269C316.633 269 316.635 269 316.637 269C316.64 269 316.642 269 316.644 269C316.647 269 316.649 269 316.651 269C316.653 269 316.656 269 316.658 269C316.66 269 316.662 269 316.665 269C316.667 269 316.669 269 316.672 269C316.674 269 316.676 269 316.678 269C316.681 269 316.683 269 316.685 269C316.688 269 316.69 269 316.692 269C316.694 269 316.697 269 316.699 269C316.701 269 316.703 269 316.706 269C316.708 269 316.71 269 316.712 269C316.715 269 316.717 269 316.719 269C316.722 269 316.724 269 316.726 269C316.728 269 316.731 269 316.733 269C316.735 269 316.737 269 316.74 269C316.742 269 316.744 269 316.746 269C316.749 269 316.751 269 316.753 269C316.755 269 316.758 269 316.76 269C316.762 269 316.765 269 316.767 269C316.769 269 316.771 269 316.774 269C316.776 269 316.778 269 316.78 269C316.783 269 316.785 269 316.787 269C316.789 269 316.792 269 316.794 269C316.796 269 316.798 269 316.801 269C316.803 269 316.805 269 316.807 269C316.81 269 316.812 269 316.814 269C316.816 269 316.819 269 316.821 269C316.823 269 316.825 269 316.827 269C316.83 269 316.832 269 316.834 269C316.836 269 316.839 269 316.841 269C316.843 269 316.845 269 316.848 269C316.85 269 316.852 269 316.854 269C316.857 269 316.859 269 316.861 269C316.863 269 316.866 269 316.868 269C316.87 269 316.872 269 316.874 269C316.877 269 316.879 269 316.881 269C316.883 269 316.886 269 316.888 269C316.89 269 316.892 269 316.895 269C316.897 269 316.899 269 316.901 269C316.903 269 316.906 269 316.908 269C316.91 269 316.912 269 316.915 269C316.917 269 316.919 269 316.921 269C316.923 269 316.926 269 316.928 269C316.93 269 316.932 269 316.935 269C316.937 269 316.939 269 316.941 269C316.943 269 316.946 269 316.948 269C316.95 269 316.952 269 316.955 269C316.957 269 316.959 269 316.961 269C316.963 269 316.966 269 316.968 269C316.97 269 316.972 269 316.974 269C316.977 269 316.979 269 316.981 269C316.983 269 316.985 269 316.988 269C316.99 269 316.992 269 316.994 269C316.997 269 316.999 269 317.001 269C317.003 269 317.005 269 317.008 269C317.01 269 317.012 269 317.014 269C317.016 269 317.019 269 317.021 269C317.023 269 317.025 269 317.027 269C317.03 269 317.032 269 317.034 269C317.036 269 317.038 269 317.041 269C317.043 269 317.045 269 317.047 269C317.049 269 317.052 269 317.054 269C317.056 269 317.058 269 317.06 269C317.062 269 317.065 269 317.067 269C317.069 269 317.071 269 317.073 269C317.076 269 317.078 269 317.08 269C317.082 269 317.084 269 317.087 269C317.089 269 317.091 269 317.093 269C317.095 269 317.098 269 317.1 269C317.102 269 317.104 269 317.106 269C317.108 269 317.111 269 317.113 269C317.115 269 317.117 269 317.119 269C317.122 269 317.124 269 317.126 269C317.128 269 317.13 269 317.132 269C317.135 269 317.137 269 317.139 269C317.141 269 317.143 269 317.146 269C317.148 269 317.15 269 317.152 269C317.154 269 317.156 269 317.159 269C317.161 269 317.163 269 317.165 269C317.167 269 317.169 269 317.172 269C317.174 269 317.176 269 317.178 269C317.18 269 317.182 269 317.185 269C317.187 269 317.189 269 317.191 269C317.193 269 317.195 269 317.198 269C317.2 269 317.202 269 317.204 269C317.206 269 317.208 269 317.211 269C317.213 269 317.215 269 317.217 269C317.219 269 317.221 269 317.224 269C317.226 269 317.228 269 317.23 269C317.232 269 317.234 269 317.237 269C317.239 269 317.241 269 317.243 269C317.245 269 317.247 269 317.249 269C317.252 269 317.254 269 317.256 269C317.258 269 317.26 269 317.262 269C317.265 269 317.267 269 317.269 269C317.271 269 317.273 269 317.275 269C317.277 269 317.28 269 317.282 269C317.284 269 317.286 269 317.288 269C317.29 269 317.293 269 317.295 269C317.297 269 317.299 269 317.301 269C317.303 269 317.305 269 317.308 269C317.31 269 317.312 269 317.314 269C317.316 269 317.318 269 317.32 269C317.323 269 317.325 269 317.327 269C317.329 269 317.331 269 317.333 269C317.335 269 317.338 269 317.34 269C317.342 269 317.344 269 317.346 269C317.348 269 317.35 269 317.352 269C317.355 269 317.357 269 317.359 269C317.361 269 317.363 269 317.365 269C317.367 269 317.37 269 317.372 269C317.374 269 317.376 269 317.378 269C317.38 269 317.382 269 317.385 269C317.387 269 317.389 269 317.391 269C317.393 269 317.395 269 317.397 269C317.399 269 317.402 269 317.404 269C317.406 269 317.408 269 317.41 269C317.412 269 317.414 269 317.416 269C317.419 269 317.421 269 317.423 269C317.425 269 317.427 269 317.429 269C317.431 269 317.433 269 317.436 269C317.438 269 317.44 269 317.442 269C317.444 269 317.446 269 317.448 269C317.45 269 317.452 269 317.455 269C317.457 269 317.459 269 317.461 269C317.463 269 317.465 269 317.467 269C317.469 269 317.472 269 317.474 269C317.476 269 317.478 269 317.48 269C317.482 269 317.484 269 317.486 269C317.488 269 317.491 269 317.493 269C317.495 269 317.497 269 317.499 269C317.501 269 317.503 269 317.505 269C317.507 269 317.51 269 317.512 269C317.514 269 317.516 269 317.518 269C317.52 269 317.522 269 317.524 269C317.526 269 317.529 269 317.531 269C317.533 269 317.535 269 317.537 269C317.539 269 317.541 269 317.543 269C317.545 269 317.547 269 317.55 269C317.552 269 317.554 269 317.556 269C317.558 269 317.56 269 317.562 269C317.564 269 317.566 269 317.568 269C317.571 269 317.573 269 317.575 269C317.577 269 317.579 269 317.581 269C317.583 269 317.585 269 317.587 269C317.589 269 317.592 269 317.594 269C317.596 269 317.598 269 317.6 269C317.602 269 317.604 269 317.606 269C317.608 269 317.61 269 317.612 269C317.615 269 317.617 269 317.619 269C317.621 269 317.623 269 317.625 269C317.627 269 317.629 269 317.631 269C317.633 269 317.635 269 317.638 269C317.64 269 317.642 269 317.644 269C317.646 269 317.648 269 317.65 269C317.652 269 317.654 269 317.656 269C317.658 269 317.661 269 317.663 269C317.665 269 317.667 269 317.669 269C317.671 269 317.673 269 317.675 269C317.677 269 317.679 269 317.681 269C317.683 269 317.686 269 317.688 269C317.69 269 317.692 269 317.694 269C317.696 269 317.698 269 317.7 269C317.702 269 317.704 269 317.706 269C317.708 269 317.71 269 317.713 269C317.715 269 317.717 269 317.719 269C317.721 269 317.723 269 317.725 269C317.727 269 317.729 269 317.731 269C317.733 269 317.735 269 317.737 269C317.739 269 317.742 269 317.744 269C317.746 269 317.748 269 317.75 269C317.752 269 317.754 269 317.756 269C317.758 269 317.76 269 317.762 269C317.764 269 317.766 269 317.768 269C317.771 269 317.773 269 317.775 269C317.777 269 317.779 269 317.781 269C317.783 269 317.785 269 317.787 269C317.789 269 317.791 269 317.793 269C317.795 269 317.797 269 317.799 269C317.802 269 317.804 269 317.806 269C317.808 269 317.81 269 317.812 269C317.814 269 317.816 269 317.818 269C317.82 269 317.822 269 317.824 269C317.826 269 317.828 269 317.83 269C317.832 269 317.834 269 317.837 269C317.839 269 317.841 269 317.843 269C317.845 269 317.847 269 317.849 269C317.851 269 317.853 269 317.855 269C317.857 269 317.859 269 317.861 269C317.863 269 317.865 269 317.867 269C317.869 269 317.871 269 317.874 269C317.876 269 317.878 269 317.88 269C317.882 269 317.884 269 317.886 269C317.888 269 317.89 269 317.892 269C317.894 269 317.896 269 317.898 269C317.9 269 317.902 269 317.904 269C317.906 269 317.908 269 317.91 269C317.912 269 317.915 269 317.917 269C317.919 269 317.921 269 317.923 269C317.925 269 317.927 269 317.929 269C317.931 269 317.933 269 317.935 269C317.937 269 317.939 269 317.941 269C317.943 269 317.945 269 317.947 269C317.949 269 317.951 269 317.953 269C317.955 269 317.957 269 317.959 269C317.962 269 317.964 269 317.966 269C317.968 269 317.97 269 317.972 269C317.974 269 317.976 269 317.978 269C317.98 269 317.982 269 317.984 269C317.986 269 317.988 269 317.99 269C317.992 269 317.994 269 317.996 269C317.998 269 318 269 318.002 269C318.004 269 318.006 269 318.008 269C318.01 269 318.012 269 318.014 269C318.017 269 318.019 269 318.021 269C318.023 269 318.025 269 318.027 269C318.029 269 318.031 269 318.033 269C318.035 269 318.037 269 318.039 269C318.041 269 318.043 269 318.045 269C318.047 269 318.049 269 318.051 269C318.053 269 318.055 269 318.057 269C318.059 269 318.061 269 318.063 269C318.065 269 318.067 269 318.069 269C318.071 269 318.073 269 318.075 269C318.077 269 318.079 269 318.081 269C318.083 269 318.086 269 318.088 269C318.09 269 318.092 269 318.094 269C318.096 269 318.098 269 318.1 269C318.102 269 318.104 269 318.106 269C318.108 269 318.11 269 318.112 269C318.114 269 318.116 269 318.118 269C318.12 269 318.122 269 318.124 269C318.126 269 318.128 269 318.13 269C318.132 269 318.134 269 318.136 269C318.138 269 318.14 269 318.142 269C318.144 269 318.146 269 318.148 269C318.15 269 318.152 269 318.154 269C318.156 269 318.158 269 318.16 269C318.162 269 318.164 269 318.166 269C318.168 269 318.17 269 318.172 269C318.174 269 318.176 269 318.178 269C318.18 269 318.182 269 318.184 269C318.186 269 318.188 269 318.19 269C318.193 269 318.195 269 318.197 269C318.199 269 318.201 269 318.203 269C318.205 269 318.207 269 318.209 269C318.211 269 318.213 269 318.215 269C318.217 269 318.219 269 318.221 269C318.223 269 318.225 269 318.227 269C318.229 269 318.231 269 318.233 269C318.235 269 318.237 269 318.239 269C318.241 269 318.243 269 318.245 269C318.247 269 318.249 269 318.251 269C318.253 269 318.255 269 318.257 269C318.259 269 318.261 269 318.263 269C318.265 269 318.267 269 318.269 269C318.271 269 318.273 269 318.275 269C318.277 269 318.279 269 318.281 269C318.283 269 318.285 269 318.287 269C318.289 269 318.291 269 318.293 269C318.295 269 318.297 269 318.299 269C318.301 269 318.303 269 318.305 269C318.307 269 318.309 269 318.311 269C318.313 269 318.315 269 318.317 269C318.319 269 318.321 269 318.323 269C318.325 269 318.327 269 318.329 269C318.331 269 318.333 269 318.335 269C318.337 269 318.339 269 318.341 269C318.343 269 318.345 269 318.347 269C318.349 269 318.351 269 318.353 269C318.355 269 318.357 269 318.359 269C318.361 269 318.363 269 318.365 269C318.367 269 318.369 269 318.371 269C318.373 269 318.375 269 318.377 269C318.379 269 318.381 269 318.383 269C318.385 269 318.387 269 318.389 269C318.391 269 318.393 269 318.395 269C318.397 269 318.399 269 318.401 269C318.403 269 318.405 269 318.407 269C318.409 269 318.411 269 318.413 269C318.415 269 318.417 269 318.419 269C318.421 269 318.423 269 318.425 269C318.427 269 318.429 269 318.431 269C318.433 269 318.435 269 318.437 269C318.439 269 318.44 269 318.442 269C318.444 269 318.446 269 318.448 269C318.45 269 318.452 269 318.454 269C318.456 269 318.458 269 318.46 269C318.462 269 318.464 269 318.466 269C318.468 269 318.47 269 318.472 269C318.474 269 318.476 269 318.478 269C318.48 269 318.482 269 318.484 269C318.486 269 318.488 269 318.49 269C318.492 269 318.494 269 318.496 269C318.498 269 318.5 269 318.502 269C318.504 269 318.506 269 318.508 269C318.51 269 318.512 269 318.514 269C318.516 269 318.518 269 318.52 269C318.522 269 318.524 269 318.526 269C318.528 269 318.53 269 318.532 269C318.534 269 318.536 269 318.538 269C318.54 269 318.542 269 318.544 269C318.546 269 318.548 269 318.55 269C318.552 269 318.554 269 318.556 269C318.558 269 318.56 269 318.561 269C318.563 269 318.565 269 318.567 269C318.569 269 318.571 269 318.573 269C318.575 269 318.577 269 318.579 269C318.581 269 318.583 269 318.585 269C318.587 269 318.589 269 318.591 269C318.593 269 318.595 269 318.597 269C318.599 269 318.601 269 318.603 269C318.605 269 318.607 269 318.609 269C318.611 269 318.613 269 318.615 269C318.617 269 318.619 269 318.621 269C318.623 269 318.625 269 318.627 269C318.629 269 318.631 269 318.633 269C318.635 269 318.637 269 318.639 269C318.641 269 318.642 269 318.644 269C318.646 269 318.648 269 318.65 269C318.652 269 318.654 269 318.656 269C318.658 269 318.66 269 318.662 269C318.664 269 318.666 269 318.668 269C318.67 269 318.672 269 318.674 269C318.676 269 318.678 269 318.68 269C318.682 269 318.684 269 318.686 269C318.688 269 318.69 269 318.692 269C318.694 269 318.696 269 318.698 269C318.7 269 318.702 269 318.704 269C318.706 269 318.708 269 318.709 269C318.711 269 318.713 269 318.715 269C318.717 269 318.719 269 318.721 269C318.723 269 318.725 269 318.727 269C318.729 269 318.731 269 318.733 269C318.735 269 318.737 269 318.739 269C318.741 269 318.743 269 318.745 269C318.747 269 318.749 269 318.751 269C318.753 269 318.755 269 318.757 269C318.759 269 318.761 269 318.763 269C318.765 269 318.767 269 318.769 269C318.77 269 318.772 269 318.774 269C318.776 269 318.778 269 318.78 269C318.782 269 318.784 269 318.786 269C318.788 269 318.79 269 318.792 269C318.794 269 318.796 269 318.798 269C318.8 269 318.802 269 318.804 269C318.806 269 318.808 269 318.81 269C318.812 269 318.814 269 318.816 269C318.818 269 318.82 269 318.822 269C318.824 269 318.825 269 318.827 269C318.829 269 318.831 269 318.833 269C318.835 269 318.837 269 318.839 269C318.841 269 318.843 269 318.845 269C318.847 269 318.849 269 318.851 269C318.853 269 318.855 269 318.857 269C318.859 269 318.861 269 318.863 269C318.865 269 318.867 269 318.869 269C318.871 269 318.873 269 318.875 269C318.876 269 318.878 269 318.88 269C318.882 269 318.884 269 318.886 269C318.888 269 318.89 269 318.892 269C318.894 269 318.896 269 318.898 269C318.9 269 318.902 269 318.904 269C318.906 269 318.908 269 318.91 269C318.912 269 318.914 269 318.916 269C318.918 269 318.92 269 318.922 269C318.924 269 318.925 269 318.927 269C318.929 269 318.931 269 318.933 269C318.935 269 318.937 269 318.939 269C318.941 269 318.943 269 318.945 269C318.947 269 318.949 269 318.951 269C318.953 269 318.955 269 318.957 269C318.959 269 318.961 269 318.963 269C318.965 269 318.967 269 318.969 269C318.971 269 318.972 269 318.974 269C318.976 269 318.978 269 318.98 269C318.982 269 318.984 269 318.986 269C318.988 269 318.99 269 318.992 269C318.994 269 318.996 269 318.998 269C319 269 319.002 269 319.004 269C319.006 269 319.008 269 319.01 269C319.012 269 319.014 269 319.016 269C319.017 269 319.019 269 319.021 269C319.023 269 319.025 269 319.027 269C319.029 269 319.031 269 319.033 269C319.035 269 319.037 269 319.039 269C319.041 269 319.043 269 319.045 269C319.047 269 319.049 269 319.051 269C319.053 269 319.055 269 319.057 269C319.059 269 319.06 269 319.062 269C319.064 269 319.066 269 319.068 269C319.07 269 319.072 269 319.074 269C319.076 269 319.078 269 319.08 269C319.082 269 319.084 269 319.086 269C319.088 269 319.09 269 319.092 269C319.094 269 319.096 269 319.098 269C319.1 269 319.102 269 319.103 269C319.105 269 319.107 269 319.109 269C319.111 269 319.113 269 319.115 269C319.117 269 319.119 269 319.121 269C319.123 269 319.125 269 319.127 269C319.129 269 319.131 269 319.133 269C319.135 269 319.137 269 319.139 269C319.141 269 319.143 269 319.145 269C319.146 269 319.148 269 319.15 269C319.152 269 319.154 269 319.156 269C319.158 269 319.16 269 319.162 269C319.164 269 319.166 269 319.168 269C319.17 269 319.172 269 319.174 269C319.176 269 319.178 269 319.18 269C319.182 269 319.184 269 319.186 269C319.188 269 319.189 269 319.191 269C319.193 269 319.195 269 319.197 269C319.199 269 319.201 269 319.203 269C319.205 269 319.207 269 319.209 269C319.211 269 319.213 269 319.215 269C319.217 269 319.219 269 319.221 269C319.223 269 319.225 269 319.227 269C319.229 269 319.23 269 319.232 269C319.234 269 319.236 269 319.238 269C319.24 269 319.242 269 319.244 269C319.246 269 319.248 269 319.25 269V265C319.248 265 319.246 265 319.244 265C319.242 265 319.24 265 319.238 265C319.236 265 319.234 265 319.232 265C319.23 265 319.229 265 319.227 265C319.225 265 319.223 265 319.221 265C319.219 265 319.217 265 319.215 265C319.213 265 319.211 265 319.209 265C319.207 265 319.205 265 319.203 265C319.201 265 319.199 265 319.197 265C319.195 265 319.193 265 319.191 265C319.189 265 319.188 265 319.186 265C319.184 265 319.182 265 319.18 265C319.178 265 319.176 265 319.174 265C319.172 265 319.17 265 319.168 265C319.166 265 319.164 265 319.162 265C319.16 265 319.158 265 319.156 265C319.154 265 319.152 265 319.15 265C319.148 265 319.146 265 319.145 265C319.143 265 319.141 265 319.139 265C319.137 265 319.135 265 319.133 265C319.131 265 319.129 265 319.127 265C319.125 265 319.123 265 319.121 265C319.119 265 319.117 265 319.115 265C319.113 265 319.111 265 319.109 265C319.107 265 319.105 265 319.103 265C319.102 265 319.1 265 319.098 265C319.096 265 319.094 265 319.092 265C319.09 265 319.088 265 319.086 265C319.084 265 319.082 265 319.08 265C319.078 265 319.076 265 319.074 265C319.072 265 319.07 265 319.068 265C319.066 265 319.064 265 319.062 265C319.06 265 319.059 265 319.057 265C319.055 265 319.053 265 319.051 265C319.049 265 319.047 265 319.045 265C319.043 265 319.041 265 319.039 265C319.037 265 319.035 265 319.033 265C319.031 265 319.029 265 319.027 265C319.025 265 319.023 265 319.021 265C319.019 265 319.017 265 319.016 265C319.014 265 319.012 265 319.01 265C319.008 265 319.006 265 319.004 265C319.002 265 319 265 318.998 265C318.996 265 318.994 265 318.992 265C318.99 265 318.988 265 318.986 265C318.984 265 318.982 265 318.98 265C318.978 265 318.976 265 318.974 265C318.972 265 318.971 265 318.969 265C318.967 265 318.965 265 318.963 265C318.961 265 318.959 265 318.957 265C318.955 265 318.953 265 318.951 265C318.949 265 318.947 265 318.945 265C318.943 265 318.941 265 318.939 265C318.937 265 318.935 265 318.933 265C318.931 265 318.929 265 318.927 265C318.925 265 318.924 265 318.922 265C318.92 265 318.918 265 318.916 265C318.914 265 318.912 265 318.91 265C318.908 265 318.906 265 318.904 265C318.902 265 318.9 265 318.898 265C318.896 265 318.894 265 318.892 265C318.89 265 318.888 265 318.886 265C318.884 265 318.882 265 318.88 265C318.878 265 318.876 265 318.875 265C318.873 265 318.871 265 318.869 265C318.867 265 318.865 265 318.863 265C318.861 265 318.859 265 318.857 265C318.855 265 318.853 265 318.851 265C318.849 265 318.847 265 318.845 265C318.843 265 318.841 265 318.839 265C318.837 265 318.835 265 318.833 265C318.831 265 318.829 265 318.827 265C318.825 265 318.824 265 318.822 265C318.82 265 318.818 265 318.816 265C318.814 265 318.812 265 318.81 265C318.808 265 318.806 265 318.804 265C318.802 265 318.8 265 318.798 265C318.796 265 318.794 265 318.792 265C318.79 265 318.788 265 318.786 265C318.784 265 318.782 265 318.78 265C318.778 265 318.776 265 318.774 265C318.772 265 318.77 265 318.769 265C318.767 265 318.765 265 318.763 265C318.761 265 318.759 265 318.757 265C318.755 265 318.753 265 318.751 265C318.749 265 318.747 265 318.745 265C318.743 265 318.741 265 318.739 265C318.737 265 318.735 265 318.733 265C318.731 265 318.729 265 318.727 265C318.725 265 318.723 265 318.721 265C318.719 265 318.717 265 318.715 265C318.713 265 318.711 265 318.709 265C318.708 265 318.706 265 318.704 265C318.702 265 318.7 265 318.698 265C318.696 265 318.694 265 318.692 265C318.69 265 318.688 265 318.686 265C318.684 265 318.682 265 318.68 265C318.678 265 318.676 265 318.674 265C318.672 265 318.67 265 318.668 265C318.666 265 318.664 265 318.662 265C318.66 265 318.658 265 318.656 265C318.654 265 318.652 265 318.65 265C318.648 265 318.646 265 318.644 265C318.642 265 318.641 265 318.639 265C318.637 265 318.635 265 318.633 265C318.631 265 318.629 265 318.627 265C318.625 265 318.623 265 318.621 265C318.619 265 318.617 265 318.615 265C318.613 265 318.611 265 318.609 265C318.607 265 318.605 265 318.603 265C318.601 265 318.599 265 318.597 265C318.595 265 318.593 265 318.591 265C318.589 265 318.587 265 318.585 265C318.583 265 318.581 265 318.579 265C318.577 265 318.575 265 318.573 265C318.571 265 318.569 265 318.567 265C318.565 265 318.563 265 318.561 265C318.56 265 318.558 265 318.556 265C318.554 265 318.552 265 318.55 265C318.548 265 318.546 265 318.544 265C318.542 265 318.54 265 318.538 265C318.536 265 318.534 265 318.532 265C318.53 265 318.528 265 318.526 265C318.524 265 318.522 265 318.52 265C318.518 265 318.516 265 318.514 265C318.512 265 318.51 265 318.508 265C318.506 265 318.504 265 318.502 265C318.5 265 318.498 265 318.496 265C318.494 265 318.492 265 318.49 265C318.488 265 318.486 265 318.484 265C318.482 265 318.48 265 318.478 265C318.476 265 318.474 265 318.472 265C318.47 265 318.468 265 318.466 265C318.464 265 318.462 265 318.46 265C318.458 265 318.456 265 318.454 265C318.452 265 318.45 265 318.448 265C318.446 265 318.444 265 318.442 265C318.44 265 318.439 265 318.437 265C318.435 265 318.433 265 318.431 265C318.429 265 318.427 265 318.425 265C318.423 265 318.421 265 318.419 265C318.417 265 318.415 265 318.413 265C318.411 265 318.409 265 318.407 265C318.405 265 318.403 265 318.401 265C318.399 265 318.397 265 318.395 265C318.393 265 318.391 265 318.389 265C318.387 265 318.385 265 318.383 265C318.381 265 318.379 265 318.377 265C318.375 265 318.373 265 318.371 265C318.369 265 318.367 265 318.365 265C318.363 265 318.361 265 318.359 265C318.357 265 318.355 265 318.353 265C318.351 265 318.349 265 318.347 265C318.345 265 318.343 265 318.341 265C318.339 265 318.337 265 318.335 265C318.333 265 318.331 265 318.329 265C318.327 265 318.325 265 318.323 265C318.321 265 318.319 265 318.317 265C318.315 265 318.313 265 318.311 265C318.309 265 318.307 265 318.305 265C318.303 265 318.301 265 318.299 265C318.297 265 318.295 265 318.293 265C318.291 265 318.289 265 318.287 265C318.285 265 318.283 265 318.281 265C318.279 265 318.277 265 318.275 265C318.273 265 318.271 265 318.269 265C318.267 265 318.265 265 318.263 265C318.261 265 318.259 265 318.257 265C318.255 265 318.253 265 318.251 265C318.249 265 318.247 265 318.245 265C318.243 265 318.241 265 318.239 265C318.237 265 318.235 265 318.233 265C318.231 265 318.229 265 318.227 265C318.225 265 318.223 265 318.221 265C318.219 265 318.217 265 318.215 265C318.213 265 318.211 265 318.209 265C318.207 265 318.205 265 318.203 265C318.201 265 318.199 265 318.197 265C318.195 265 318.193 265 318.19 265C318.188 265 318.186 265 318.184 265C318.182 265 318.18 265 318.178 265C318.176 265 318.174 265 318.172 265C318.17 265 318.168 265 318.166 265C318.164 265 318.162 265 318.16 265C318.158 265 318.156 265 318.154 265C318.152 265 318.15 265 318.148 265C318.146 265 318.144 265 318.142 265C318.14 265 318.138 265 318.136 265C318.134 265 318.132 265 318.13 265C318.128 265 318.126 265 318.124 265C318.122 265 318.12 265 318.118 265C318.116 265 318.114 265 318.112 265C318.11 265 318.108 265 318.106 265C318.104 265 318.102 265 318.1 265C318.098 265 318.096 265 318.094 265C318.092 265 318.09 265 318.088 265C318.086 265 318.083 265 318.081 265C318.079 265 318.077 265 318.075 265C318.073 265 318.071 265 318.069 265C318.067 265 318.065 265 318.063 265C318.061 265 318.059 265 318.057 265C318.055 265 318.053 265 318.051 265C318.049 265 318.047 265 318.045 265C318.043 265 318.041 265 318.039 265C318.037 265 318.035 265 318.033 265C318.031 265 318.029 265 318.027 265C318.025 265 318.023 265 318.021 265C318.019 265 318.017 265 318.014 265C318.012 265 318.01 265 318.008 265C318.006 265 318.004 265 318.002 265C318 265 317.998 265 317.996 265C317.994 265 317.992 265 317.99 265C317.988 265 317.986 265 317.984 265C317.982 265 317.98 265 317.978 265C317.976 265 317.974 265 317.972 265C317.97 265 317.968 265 317.966 265C317.964 265 317.962 265 317.959 265C317.957 265 317.955 265 317.953 265C317.951 265 317.949 265 317.947 265C317.945 265 317.943 265 317.941 265C317.939 265 317.937 265 317.935 265C317.933 265 317.931 265 317.929 265C317.927 265 317.925 265 317.923 265C317.921 265 317.919 265 317.917 265C317.915 265 317.912 265 317.91 265C317.908 265 317.906 265 317.904 265C317.902 265 317.9 265 317.898 265C317.896 265 317.894 265 317.892 265C317.89 265 317.888 265 317.886 265C317.884 265 317.882 265 317.88 265C317.878 265 317.876 265 317.874 265C317.871 265 317.869 265 317.867 265C317.865 265 317.863 265 317.861 265C317.859 265 317.857 265 317.855 265C317.853 265 317.851 265 317.849 265C317.847 265 317.845 265 317.843 265C317.841 265 317.839 265 317.837 265C317.834 265 317.832 265 317.83 265C317.828 265 317.826 265 317.824 265C317.822 265 317.82 265 317.818 265C317.816 265 317.814 265 317.812 265C317.81 265 317.808 265 317.806 265C317.804 265 317.802 265 317.799 265C317.797 265 317.795 265 317.793 265C317.791 265 317.789 265 317.787 265C317.785 265 317.783 265 317.781 265C317.779 265 317.777 265 317.775 265C317.773 265 317.771 265 317.768 265C317.766 265 317.764 265 317.762 265C317.76 265 317.758 265 317.756 265C317.754 265 317.752 265 317.75 265C317.748 265 317.746 265 317.744 265C317.742 265 317.739 265 317.737 265C317.735 265 317.733 265 317.731 265C317.729 265 317.727 265 317.725 265C317.723 265 317.721 265 317.719 265C317.717 265 317.715 265 317.713 265C317.71 265 317.708 265 317.706 265C317.704 265 317.702 265 317.7 265C317.698 265 317.696 265 317.694 265C317.692 265 317.69 265 317.688 265C317.686 265 317.683 265 317.681 265C317.679 265 317.677 265 317.675 265C317.673 265 317.671 265 317.669 265C317.667 265 317.665 265 317.663 265C317.661 265 317.658 265 317.656 265C317.654 265 317.652 265 317.65 265C317.648 265 317.646 265 317.644 265C317.642 265 317.64 265 317.638 265C317.635 265 317.633 265 317.631 265C317.629 265 317.627 265 317.625 265C317.623 265 317.621 265 317.619 265C317.617 265 317.615 265 317.612 265C317.61 265 317.608 265 317.606 265C317.604 265 317.602 265 317.6 265C317.598 265 317.596 265 317.594 265C317.592 265 317.589 265 317.587 265C317.585 265 317.583 265 317.581 265C317.579 265 317.577 265 317.575 265C317.573 265 317.571 265 317.568 265C317.566 265 317.564 265 317.562 265C317.56 265 317.558 265 317.556 265C317.554 265 317.552 265 317.55 265C317.547 265 317.545 265 317.543 265C317.541 265 317.539 265 317.537 265C317.535 265 317.533 265 317.531 265C317.529 265 317.526 265 317.524 265C317.522 265 317.52 265 317.518 265C317.516 265 317.514 265 317.512 265C317.51 265 317.507 265 317.505 265C317.503 265 317.501 265 317.499 265C317.497 265 317.495 265 317.493 265C317.491 265 317.488 265 317.486 265C317.484 265 317.482 265 317.48 265C317.478 265 317.476 265 317.474 265C317.472 265 317.469 265 317.467 265C317.465 265 317.463 265 317.461 265C317.459 265 317.457 265 317.455 265C317.452 265 317.45 265 317.448 265C317.446 265 317.444 265 317.442 265C317.44 265 317.438 265 317.436 265C317.433 265 317.431 265 317.429 265C317.427 265 317.425 265 317.423 265C317.421 265 317.419 265 317.416 265C317.414 265 317.412 265 317.41 265C317.408 265 317.406 265 317.404 265C317.402 265 317.399 265 317.397 265C317.395 265 317.393 265 317.391 265C317.389 265 317.387 265 317.385 265C317.382 265 317.38 265 317.378 265C317.376 265 317.374 265 317.372 265C317.37 265 317.367 265 317.365 265C317.363 265 317.361 265 317.359 265C317.357 265 317.355 265 317.352 265C317.35 265 317.348 265 317.346 265C317.344 265 317.342 265 317.34 265C317.338 265 317.335 265 317.333 265C317.331 265 317.329 265 317.327 265C317.325 265 317.323 265 317.32 265C317.318 265 317.316 265 317.314 265C317.312 265 317.31 265 317.308 265C317.305 265 317.303 265 317.301 265C317.299 265 317.297 265 317.295 265C317.293 265 317.29 265 317.288 265C317.286 265 317.284 265 317.282 265C317.28 265 317.277 265 317.275 265C317.273 265 317.271 265 317.269 265C317.267 265 317.265 265 317.262 265C317.26 265 317.258 265 317.256 265C317.254 265 317.252 265 317.249 265C317.247 265 317.245 265 317.243 265C317.241 265 317.239 265 317.237 265C317.234 265 317.232 265 317.23 265C317.228 265 317.226 265 317.224 265C317.221 265 317.219 265 317.217 265C317.215 265 317.213 265 317.211 265C317.208 265 317.206 265 317.204 265C317.202 265 317.2 265 317.198 265C317.195 265 317.193 265 317.191 265C317.189 265 317.187 265 317.185 265C317.182 265 317.18 265 317.178 265C317.176 265 317.174 265 317.172 265C317.169 265 317.167 265 317.165 265C317.163 265 317.161 265 317.159 265C317.156 265 317.154 265 317.152 265C317.15 265 317.148 265 317.146 265C317.143 265 317.141 265 317.139 265C317.137 265 317.135 265 317.132 265C317.13 265 317.128 265 317.126 265C317.124 265 317.122 265 317.119 265C317.117 265 317.115 265 317.113 265C317.111 265 317.108 265 317.106 265C317.104 265 317.102 265 317.1 265C317.098 265 317.095 265 317.093 265C317.091 265 317.089 265 317.087 265C317.084 265 317.082 265 317.08 265C317.078 265 317.076 265 317.073 265C317.071 265 317.069 265 317.067 265C317.065 265 317.062 265 317.06 265C317.058 265 317.056 265 317.054 265C317.052 265 317.049 265 317.047 265C317.045 265 317.043 265 317.041 265C317.038 265 317.036 265 317.034 265C317.032 265 317.03 265 317.027 265C317.025 265 317.023 265 317.021 265C317.019 265 317.016 265 317.014 265C317.012 265 317.01 265 317.008 265C317.005 265 317.003 265 317.001 265C316.999 265 316.997 265 316.994 265C316.992 265 316.99 265 316.988 265C316.985 265 316.983 265 316.981 265C316.979 265 316.977 265 316.974 265C316.972 265 316.97 265 316.968 265C316.966 265 316.963 265 316.961 265C316.959 265 316.957 265 316.955 265C316.952 265 316.95 265 316.948 265C316.946 265 316.943 265 316.941 265C316.939 265 316.937 265 316.935 265C316.932 265 316.93 265 316.928 265C316.926 265 316.923 265 316.921 265C316.919 265 316.917 265 316.915 265C316.912 265 316.91 265 316.908 265C316.906 265 316.903 265 316.901 265C316.899 265 316.897 265 316.895 265C316.892 265 316.89 265 316.888 265C316.886 265 316.883 265 316.881 265C316.879 265 316.877 265 316.874 265C316.872 265 316.87 265 316.868 265C316.866 265 316.863 265 316.861 265C316.859 265 316.857 265 316.854 265C316.852 265 316.85 265 316.848 265C316.845 265 316.843 265 316.841 265C316.839 265 316.836 265 316.834 265C316.832 265 316.83 265 316.827 265C316.825 265 316.823 265 316.821 265C316.819 265 316.816 265 316.814 265C316.812 265 316.81 265 316.807 265C316.805 265 316.803 265 316.801 265C316.798 265 316.796 265 316.794 265C316.792 265 316.789 265 316.787 265C316.785 265 316.783 265 316.78 265C316.778 265 316.776 265 316.774 265C316.771 265 316.769 265 316.767 265C316.765 265 316.762 265 316.76 265C316.758 265 316.755 265 316.753 265C316.751 265 316.749 265 316.746 265C316.744 265 316.742 265 316.74 265C316.737 265 316.735 265 316.733 265C316.731 265 316.728 265 316.726 265C316.724 265 316.722 265 316.719 265C316.717 265 316.715 265 316.712 265C316.71 265 316.708 265 316.706 265C316.703 265 316.701 265 316.699 265C316.697 265 316.694 265 316.692 265C316.69 265 316.688 265 316.685 265C316.683 265 316.681 265 316.678 265C316.676 265 316.674 265 316.672 265C316.669 265 316.667 265 316.665 265C316.662 265 316.66 265 316.658 265C316.656 265 316.653 265 316.651 265C316.649 265 316.647 265 316.644 265C316.642 265 316.64 265 316.637 265C316.635 265 316.633 265 316.631 265C316.628 265 316.626 265 316.624 265C316.621 265 316.619 265 316.617 265C316.614 265 316.612 265 316.61 265C316.608 265 316.605 265 316.603 265C316.601 265 316.598 265 316.596 265C316.594 265 316.592 265 316.589 265C316.587 265 316.585 265 316.582 265C316.58 265 316.578 265 316.575 265C316.573 265 316.571 265 316.569 265C316.566 265 316.564 265 316.562 265C316.559 265 316.557 265 316.555 265C316.552 265 316.55 265 316.548 265C316.546 265 316.543 265 316.541 265C316.539 265 316.536 265 316.534 265C316.532 265 316.529 265 316.527 265C316.525 265 316.522 265 316.52 265C316.518 265 316.516 265 316.513 265C316.511 265 316.509 265 316.506 265C316.504 265 316.502 265 316.499 265C316.497 265 316.495 265 316.492 265C316.49 265 316.488 265 316.485 265C316.483 265 316.481 265 316.478 265C316.476 265 316.474 265 316.471 265C316.469 265 316.467 265 316.465 265C316.462 265 316.46 265 316.458 265C316.455 265 316.453 265 316.451 265C316.448 265 316.446 265 316.444 265C316.441 265 316.439 265 316.437 265C316.434 265 316.432 265 316.43 265C316.427 265 316.425 265 316.423 265C316.42 265 316.418 265 316.416 265C316.413 265 316.411 265 316.409 265C316.406 265 316.404 265 316.402 265C316.399 265 316.397 265 316.394 265C316.392 265 316.39 265 316.387 265C316.385 265 316.383 265 316.38 265C316.378 265 316.376 265 316.373 265C316.371 265 316.369 265 316.366 265C316.364 265 316.362 265 316.359 265C316.357 265 316.355 265 316.352 265C316.35 265 316.348 265 316.345 265C316.343 265 316.34 265 316.338 265C316.336 265 316.333 265 316.331 265C316.329 265 316.326 265 316.324 265C316.322 265 316.319 265 316.317 265C316.315 265 316.312 265 316.31 265C316.307 265 316.305 265 316.303 265C316.3 265 316.298 265 316.296 265C316.293 265 316.291 265 316.289 265C316.286 265 316.284 265 316.281 265C316.279 265 316.277 265 316.274 265C316.272 265 316.27 265 316.267 265C316.265 265 316.262 265 316.26 265C316.258 265 316.255 265 316.253 265C316.251 265 316.248 265 316.246 265C316.243 265 316.241 265 316.239 265C316.236 265 316.234 265 316.232 265C316.229 265 316.227 265 316.224 265C316.222 265 316.22 265 316.217 265C316.215 265 316.212 265 316.21 265C316.208 265 316.205 265 316.203 265C316.2 265 316.198 265 316.196 265C316.193 265 316.191 265 316.189 265C316.186 265 316.184 265 316.181 265C316.179 265 316.177 265 316.174 265C316.172 265 316.169 265 316.167 265C316.165 265 316.162 265 316.16 265C316.157 265 316.155 265 316.153 265C316.15 265 316.148 265 316.145 265C316.143 265 316.141 265 316.138 265C316.136 265 316.133 265 316.131 265C316.129 265 316.126 265 316.124 265C316.121 265 316.119 265 316.116 265C316.114 265 316.112 265 316.109 265C316.107 265 316.104 265 316.102 265C316.1 265 316.097 265 316.095 265C316.092 265 316.09 265 316.087 265C316.085 265 316.083 265 316.08 265C316.078 265 316.075 265 316.073 265C316.071 265 316.068 265 316.066 265C316.063 265 316.061 265 316.058 265C316.056 265 316.054 265 316.051 265C316.049 265 316.046 265 316.044 265C316.041 265 316.039 265 316.037 265C316.034 265 316.032 265 316.029 265C316.027 265 316.024 265 316.022 265C316.02 265 316.017 265 316.015 265C316.012 265 316.01 265 316.007 265C316.005 265 316.002 265 316 265V269ZM319.25 269C319.252 269 319.254 269 319.256 269C319.258 269 319.26 269 319.262 269C319.264 269 319.266 269 319.268 269C319.27 269 319.271 269 319.273 269C319.275 269 319.277 269 319.279 269C319.281 269 319.283 269 319.285 269C319.287 269 319.289 269 319.291 269C319.293 269 319.295 269 319.297 269C319.299 269 319.301 269 319.303 269C319.305 269 319.307 269 319.309 269C319.311 269 319.313 269 319.314 269C319.316 269 319.318 269 319.32 269C319.322 269 319.324 269 319.326 269C319.328 269 319.33 269 319.332 269C319.334 269 319.336 269 319.338 269C319.34 269 319.342 269 319.344 269C319.346 269 319.348 269 319.35 269C319.352 269 319.354 269 319.355 269C319.357 269 319.359 269 319.361 269C319.363 269 319.365 269 319.367 269C319.369 269 319.371 269 319.373 269C319.375 269 319.377 269 319.379 269C319.381 269 319.383 269 319.385 269C319.387 269 319.389 269 319.391 269C319.393 269 319.395 269 319.396 269C319.398 269 319.4 269 319.402 269C319.404 269 319.406 269 319.408 269C319.41 269 319.412 269 319.414 269C319.416 269 319.418 269 319.42 269C319.422 269 319.424 269 319.426 269C319.428 269 319.43 269 319.432 269C319.434 269 319.436 269 319.438 269C319.439 269 319.441 269 319.443 269C319.445 269 319.447 269 319.449 269C319.451 269 319.453 269 319.455 269C319.457 269 319.459 269 319.461 269C319.463 269 319.465 269 319.467 269C319.469 269 319.471 269 319.473 269C319.475 269 319.477 269 319.479 269C319.48 269 319.482 269 319.484 269C319.486 269 319.488 269 319.49 269C319.492 269 319.494 269 319.496 269C319.498 269 319.5 269 319.502 269C319.504 269 319.506 269 319.508 269C319.51 269 319.512 269 319.514 269C319.516 269 319.518 269 319.52 269C319.521 269 319.523 269 319.525 269C319.527 269 319.529 269 319.531 269C319.533 269 319.535 269 319.537 269C319.539 269 319.541 269 319.543 269C319.545 269 319.547 269 319.549 269C319.551 269 319.553 269 319.555 269C319.557 269 319.559 269 319.561 269C319.563 269 319.564 269 319.566 269C319.568 269 319.57 269 319.572 269C319.574 269 319.576 269 319.578 269C319.58 269 319.582 269 319.584 269C319.586 269 319.588 269 319.59 269C319.592 269 319.594 269 319.596 269C319.598 269 319.6 269 319.602 269C319.604 269 319.605 269 319.607 269C319.609 269 319.611 269 319.613 269C319.615 269 319.617 269 319.619 269C319.621 269 319.623 269 319.625 269C319.627 269 319.629 269 319.631 269C319.633 269 319.635 269 319.637 269C319.639 269 319.641 269 319.643 269C319.645 269 319.646 269 319.648 269C319.65 269 319.652 269 319.654 269C319.656 269 319.658 269 319.66 269C319.662 269 319.664 269 319.666 269C319.668 269 319.67 269 319.672 269C319.674 269 319.676 269 319.678 269C319.68 269 319.682 269 319.684 269C319.686 269 319.688 269 319.689 269C319.691 269 319.693 269 319.695 269C319.697 269 319.699 269 319.701 269C319.703 269 319.705 269 319.707 269C319.709 269 319.711 269 319.713 269C319.715 269 319.717 269 319.719 269C319.721 269 319.723 269 319.725 269C319.727 269 319.729 269 319.73 269C319.732 269 319.734 269 319.736 269C319.738 269 319.74 269 319.742 269C319.744 269 319.746 269 319.748 269C319.75 269 319.752 269 319.754 269C319.756 269 319.758 269 319.76 269C319.762 269 319.764 269 319.766 269C319.768 269 319.77 269 319.771 269C319.773 269 319.775 269 319.777 269C319.779 269 319.781 269 319.783 269C319.785 269 319.787 269 319.789 269C319.791 269 319.793 269 319.795 269C319.797 269 319.799 269 319.801 269C319.803 269 319.805 269 319.807 269C319.809 269 319.811 269 319.813 269C319.814 269 319.816 269 319.818 269C319.82 269 319.822 269 319.824 269C319.826 269 319.828 269 319.83 269C319.832 269 319.834 269 319.836 269C319.838 269 319.84 269 319.842 269C319.844 269 319.846 269 319.848 269C319.85 269 319.852 269 319.854 269C319.855 269 319.857 269 319.859 269C319.861 269 319.863 269 319.865 269C319.867 269 319.869 269 319.871 269C319.873 269 319.875 269 319.877 269C319.879 269 319.881 269 319.883 269C319.885 269 319.887 269 319.889 269C319.891 269 319.893 269 319.895 269C319.896 269 319.898 269 319.9 269C319.902 269 319.904 269 319.906 269C319.908 269 319.91 269 319.912 269C319.914 269 319.916 269 319.918 269C319.92 269 319.922 269 319.924 269C319.926 269 319.928 269 319.93 269C319.932 269 319.934 269 319.936 269C319.938 269 319.939 269 319.941 269C319.943 269 319.945 269 319.947 269C319.949 269 319.951 269 319.953 269C319.955 269 319.957 269 319.959 269C319.961 269 319.963 269 319.965 269C319.967 269 319.969 269 319.971 269C319.973 269 319.975 269 319.977 269C319.979 269 319.98 269 319.982 269C319.984 269 319.986 269 319.988 269C319.99 269 319.992 269 319.994 269C319.996 269 319.998 269 320 269C320.002 269 320.004 269 320.006 269C320.008 269 320.01 269 320.012 269C320.014 269 320.016 269 320.018 269C320.02 269 320.021 269 320.023 269C320.025 269 320.027 269 320.029 269C320.031 269 320.033 269 320.035 269C320.037 269 320.039 269 320.041 269C320.043 269 320.045 269 320.047 269C320.049 269 320.051 269 320.053 269C320.055 269 320.057 269 320.059 269C320.061 269 320.063 269 320.064 269C320.066 269 320.068 269 320.07 269C320.072 269 320.074 269 320.076 269C320.078 269 320.08 269 320.082 269C320.084 269 320.086 269 320.088 269C320.09 269 320.092 269 320.094 269C320.096 269 320.098 269 320.1 269C320.102 269 320.104 269 320.105 269C320.107 269 320.109 269 320.111 269C320.113 269 320.115 269 320.117 269C320.119 269 320.121 269 320.123 269C320.125 269 320.127 269 320.129 269C320.131 269 320.133 269 320.135 269C320.137 269 320.139 269 320.141 269C320.143 269 320.145 269 320.146 269C320.148 269 320.15 269 320.152 269C320.154 269 320.156 269 320.158 269C320.16 269 320.162 269 320.164 269C320.166 269 320.168 269 320.17 269C320.172 269 320.174 269 320.176 269C320.178 269 320.18 269 320.182 269C320.184 269 320.186 269 320.188 269C320.189 269 320.191 269 320.193 269C320.195 269 320.197 269 320.199 269C320.201 269 320.203 269 320.205 269C320.207 269 320.209 269 320.211 269C320.213 269 320.215 269 320.217 269C320.219 269 320.221 269 320.223 269C320.225 269 320.227 269 320.229 269C320.23 269 320.232 269 320.234 269C320.236 269 320.238 269 320.24 269C320.242 269 320.244 269 320.246 269C320.248 269 320.25 269 320.252 269C320.254 269 320.256 269 320.258 269C320.26 269 320.262 269 320.264 269C320.266 269 320.268 269 320.27 269C320.271 269 320.273 269 320.275 269C320.277 269 320.279 269 320.281 269C320.283 269 320.285 269 320.287 269C320.289 269 320.291 269 320.293 269C320.295 269 320.297 269 320.299 269C320.301 269 320.303 269 320.305 269C320.307 269 320.309 269 320.311 269C320.313 269 320.314 269 320.316 269C320.318 269 320.32 269 320.322 269C320.324 269 320.326 269 320.328 269C320.33 269 320.332 269 320.334 269C320.336 269 320.338 269 320.34 269C320.342 269 320.344 269 320.346 269C320.348 269 320.35 269 320.352 269C320.354 269 320.355 269 320.357 269C320.359 269 320.361 269 320.363 269C320.365 269 320.367 269 320.369 269C320.371 269 320.373 269 320.375 269C320.377 269 320.379 269 320.381 269C320.383 269 320.385 269 320.387 269C320.389 269 320.391 269 320.393 269C320.395 269 320.396 269 320.398 269C320.4 269 320.402 269 320.404 269C320.406 269 320.408 269 320.41 269C320.412 269 320.414 269 320.416 269C320.418 269 320.42 269 320.422 269C320.424 269 320.426 269 320.428 269C320.43 269 320.432 269 320.434 269C320.436 269 320.438 269 320.439 269C320.441 269 320.443 269 320.445 269C320.447 269 320.449 269 320.451 269C320.453 269 320.455 269 320.457 269C320.459 269 320.461 269 320.463 269C320.465 269 320.467 269 320.469 269C320.471 269 320.473 269 320.475 269C320.477 269 320.479 269 320.48 269C320.482 269 320.484 269 320.486 269C320.488 269 320.49 269 320.492 269C320.494 269 320.496 269 320.498 269C320.5 269 320.502 269 320.504 269C320.506 269 320.508 269 320.51 269C320.512 269 320.514 269 320.516 269C320.518 269 320.52 269 320.521 269C320.523 269 320.525 269 320.527 269C320.529 269 320.531 269 320.533 269C320.535 269 320.537 269 320.539 269C320.541 269 320.543 269 320.545 269C320.547 269 320.549 269 320.551 269C320.553 269 320.555 269 320.557 269C320.559 269 320.561 269 320.563 269C320.564 269 320.566 269 320.568 269C320.57 269 320.572 269 320.574 269C320.576 269 320.578 269 320.58 269C320.582 269 320.584 269 320.586 269C320.588 269 320.59 269 320.592 269C320.594 269 320.596 269 320.598 269C320.6 269 320.602 269 320.604 269C320.605 269 320.607 269 320.609 269C320.611 269 320.613 269 320.615 269C320.617 269 320.619 269 320.621 269C320.623 269 320.625 269 320.627 269C320.629 269 320.631 269 320.633 269C320.635 269 320.637 269 320.639 269C320.641 269 320.643 269 320.645 269C320.646 269 320.648 269 320.65 269C320.652 269 320.654 269 320.656 269C320.658 269 320.66 269 320.662 269C320.664 269 320.666 269 320.668 269C320.67 269 320.672 269 320.674 269C320.676 269 320.678 269 320.68 269C320.682 269 320.684 269 320.686 269C320.688 269 320.689 269 320.691 269C320.693 269 320.695 269 320.697 269C320.699 269 320.701 269 320.703 269C320.705 269 320.707 269 320.709 269C320.711 269 320.713 269 320.715 269C320.717 269 320.719 269 320.721 269C320.723 269 320.725 269 320.727 269C320.729 269 320.73 269 320.732 269C320.734 269 320.736 269 320.738 269C320.74 269 320.742 269 320.744 269C320.746 269 320.748 269 320.75 269C320.752 269 320.754 269 320.756 269C320.758 269 320.76 269 320.762 269C320.764 269 320.766 269 320.768 269C320.77 269 320.771 269 320.773 269C320.775 269 320.777 269 320.779 269C320.781 269 320.783 269 320.785 269C320.787 269 320.789 269 320.791 269C320.793 269 320.795 269 320.797 269C320.799 269 320.801 269 320.803 269C320.805 269 320.807 269 320.809 269C320.811 269 320.813 269 320.814 269C320.816 269 320.818 269 320.82 269C320.822 269 320.824 269 320.826 269C320.828 269 320.83 269 320.832 269C320.834 269 320.836 269 320.838 269C320.84 269 320.842 269 320.844 269C320.846 269 320.848 269 320.85 269C320.852 269 320.854 269 320.855 269C320.857 269 320.859 269 320.861 269C320.863 269 320.865 269 320.867 269C320.869 269 320.871 269 320.873 269C320.875 269 320.877 269 320.879 269C320.881 269 320.883 269 320.885 269C320.887 269 320.889 269 320.891 269C320.893 269 320.895 269 320.896 269C320.898 269 320.9 269 320.902 269C320.904 269 320.906 269 320.908 269C320.91 269 320.912 269 320.914 269C320.916 269 320.918 269 320.92 269C320.922 269 320.924 269 320.926 269C320.928 269 320.93 269 320.932 269C320.934 269 320.936 269 320.938 269C320.939 269 320.941 269 320.943 269C320.945 269 320.947 269 320.949 269C320.951 269 320.953 269 320.955 269C320.957 269 320.959 269 320.961 269C320.963 269 320.965 269 320.967 269C320.969 269 320.971 269 320.973 269C320.975 269 320.977 269 320.979 269C320.98 269 320.982 269 320.984 269C320.986 269 320.988 269 320.99 269C320.992 269 320.994 269 320.996 269C320.998 269 321 269 321.002 269C321.004 269 321.006 269 321.008 269C321.01 269 321.012 269 321.014 269C321.016 269 321.018 269 321.02 269C321.021 269 321.023 269 321.025 269C321.027 269 321.029 269 321.031 269C321.033 269 321.035 269 321.037 269C321.039 269 321.041 269 321.043 269C321.045 269 321.047 269 321.049 269C321.051 269 321.053 269 321.055 269C321.057 269 321.059 269 321.061 269C321.063 269 321.064 269 321.066 269C321.068 269 321.07 269 321.072 269C321.074 269 321.076 269 321.078 269C321.08 269 321.082 269 321.084 269C321.086 269 321.088 269 321.09 269C321.092 269 321.094 269 321.096 269C321.098 269 321.1 269 321.102 269C321.104 269 321.105 269 321.107 269C321.109 269 321.111 269 321.113 269C321.115 269 321.117 269 321.119 269C321.121 269 321.123 269 321.125 269C321.127 269 321.129 269 321.131 269C321.133 269 321.135 269 321.137 269C321.139 269 321.141 269 321.143 269C321.145 269 321.146 269 321.148 269C321.15 269 321.152 269 321.154 269C321.156 269 321.158 269 321.16 269C321.162 269 321.164 269 321.166 269C321.168 269 321.17 269 321.172 269C321.174 269 321.176 269 321.178 269C321.18 269 321.182 269 321.184 269C321.186 269 321.188 269 321.189 269C321.191 269 321.193 269 321.195 269C321.197 269 321.199 269 321.201 269C321.203 269 321.205 269 321.207 269C321.209 269 321.211 269 321.213 269C321.215 269 321.217 269 321.219 269C321.221 269 321.223 269 321.225 269C321.227 269 321.229 269 321.23 269C321.232 269 321.234 269 321.236 269C321.238 269 321.24 269 321.242 269C321.244 269 321.246 269 321.248 269C321.25 269 321.252 269 321.254 269C321.256 269 321.258 269 321.26 269C321.262 269 321.264 269 321.266 269C321.268 269 321.27 269 321.271 269C321.273 269 321.275 269 321.277 269C321.279 269 321.281 269 321.283 269C321.285 269 321.287 269 321.289 269C321.291 269 321.293 269 321.295 269C321.297 269 321.299 269 321.301 269C321.303 269 321.305 269 321.307 269C321.309 269 321.311 269 321.313 269C321.314 269 321.316 269 321.318 269C321.32 269 321.322 269 321.324 269C321.326 269 321.328 269 321.33 269C321.332 269 321.334 269 321.336 269C321.338 269 321.34 269 321.342 269C321.344 269 321.346 269 321.348 269C321.35 269 321.352 269 321.354 269C321.355 269 321.357 269 321.359 269C321.361 269 321.363 269 321.365 269C321.367 269 321.369 269 321.371 269C321.373 269 321.375 269 321.377 269C321.379 269 321.381 269 321.383 269C321.385 269 321.387 269 321.389 269C321.391 269 321.393 269 321.395 269C321.396 269 321.398 269 321.4 269C321.402 269 321.404 269 321.406 269C321.408 269 321.41 269 321.412 269C321.414 269 321.416 269 321.418 269C321.42 269 321.422 269 321.424 269C321.426 269 321.428 269 321.43 269C321.432 269 321.434 269 321.436 269C321.438 269 321.439 269 321.441 269C321.443 269 321.445 269 321.447 269C321.449 269 321.451 269 321.453 269C321.455 269 321.457 269 321.459 269C321.461 269 321.463 269 321.465 269C321.467 269 321.469 269 321.471 269C321.473 269 321.475 269 321.477 269C321.479 269 321.48 269 321.482 269C321.484 269 321.486 269 321.488 269C321.49 269 321.492 269 321.494 269C321.496 269 321.498 269 321.5 269C321.502 269 321.504 269 321.506 269C321.508 269 321.51 269 321.512 269C321.514 269 321.516 269 321.518 269C321.52 269 321.521 269 321.523 269C321.525 269 321.527 269 321.529 269C321.531 269 321.533 269 321.535 269C321.537 269 321.539 269 321.541 269C321.543 269 321.545 269 321.547 269C321.549 269 321.551 269 321.553 269C321.555 269 321.557 269 321.559 269C321.561 269 321.563 269 321.564 269C321.566 269 321.568 269 321.57 269C321.572 269 321.574 269 321.576 269C321.578 269 321.58 269 321.582 269C321.584 269 321.586 269 321.588 269C321.59 269 321.592 269 321.594 269C321.596 269 321.598 269 321.6 269C321.602 269 321.604 269 321.605 269C321.607 269 321.609 269 321.611 269C321.613 269 321.615 269 321.617 269C321.619 269 321.621 269 321.623 269C321.625 269 321.627 269 321.629 269C321.631 269 321.633 269 321.635 269C321.637 269 321.639 269 321.641 269C321.643 269 321.645 269 321.646 269C321.648 269 321.65 269 321.652 269C321.654 269 321.656 269 321.658 269C321.66 269 321.662 269 321.664 269C321.666 269 321.668 269 321.67 269C321.672 269 321.674 269 321.676 269C321.678 269 321.68 269 321.682 269C321.684 269 321.686 269 321.688 269C321.689 269 321.691 269 321.693 269C321.695 269 321.697 269 321.699 269C321.701 269 321.703 269 321.705 269C321.707 269 321.709 269 321.711 269C321.713 269 321.715 269 321.717 269C321.719 269 321.721 269 321.723 269C321.725 269 321.727 269 321.729 269C321.73 269 321.732 269 321.734 269C321.736 269 321.738 269 321.74 269C321.742 269 321.744 269 321.746 269C321.748 269 321.75 269 321.752 269C321.754 269 321.756 269 321.758 269C321.76 269 321.762 269 321.764 269C321.766 269 321.768 269 321.77 269C321.771 269 321.773 269 321.775 269C321.777 269 321.779 269 321.781 269C321.783 269 321.785 269 321.787 269C321.789 269 321.791 269 321.793 269C321.795 269 321.797 269 321.799 269C321.801 269 321.803 269 321.805 269C321.807 269 321.809 269 321.811 269C321.813 269 321.814 269 321.816 269C321.818 269 321.82 269 321.822 269C321.824 269 321.826 269 321.828 269C321.83 269 321.832 269 321.834 269C321.836 269 321.838 269 321.84 269C321.842 269 321.844 269 321.846 269C321.848 269 321.85 269 321.852 269C321.854 269 321.855 269 321.857 269C321.859 269 321.861 269 321.863 269C321.865 269 321.867 269 321.869 269C321.871 269 321.873 269 321.875 269C321.877 269 321.879 269 321.881 269C321.883 269 321.885 269 321.887 269C321.889 269 321.891 269 321.893 269C321.895 269 321.896 269 321.898 269C321.9 269 321.902 269 321.904 269C321.906 269 321.908 269 321.91 269C321.912 269 321.914 269 321.916 269C321.918 269 321.92 269 321.922 269C321.924 269 321.926 269 321.928 269C321.93 269 321.932 269 321.934 269C321.936 269 321.938 269 321.939 269C321.941 269 321.943 269 321.945 269C321.947 269 321.949 269 321.951 269C321.953 269 321.955 269 321.957 269C321.959 269 321.961 269 321.963 269C321.965 269 321.967 269 321.969 269C321.971 269 321.973 269 321.975 269C321.977 269 321.979 269 321.98 269C321.982 269 321.984 269 321.986 269C321.988 269 321.99 269 321.992 269C321.994 269 321.996 269 321.998 269C322 269 322.002 269 322.004 269C322.006 269 322.008 269 322.01 269C322.012 269 322.014 269 322.016 269C322.018 269 322.02 269 322.021 269C322.023 269 322.025 269 322.027 269C322.029 269 322.031 269 322.033 269C322.035 269 322.037 269 322.039 269C322.041 269 322.043 269 322.045 269C322.047 269 322.049 269 322.051 269C322.053 269 322.055 269 322.057 269C322.059 269 322.061 269 322.063 269C322.064 269 322.066 269 322.068 269C322.07 269 322.072 269 322.074 269C322.076 269 322.078 269 322.08 269C322.082 269 322.084 269 322.086 269C322.088 269 322.09 269 322.092 269C322.094 269 322.096 269 322.098 269C322.1 269 322.102 269 322.104 269C322.105 269 322.107 269 322.109 269C322.111 269 322.113 269 322.115 269C322.117 269 322.119 269 322.121 269C322.123 269 322.125 269 322.127 269C322.129 269 322.131 269 322.133 269C322.135 269 322.137 269 322.139 269C322.141 269 322.143 269 322.145 269C322.146 269 322.148 269 322.15 269C322.152 269 322.154 269 322.156 269C322.158 269 322.16 269 322.162 269C322.164 269 322.166 269 322.168 269C322.17 269 322.172 269 322.174 269C322.176 269 322.178 269 322.18 269C322.182 269 322.184 269 322.186 269C322.188 269 322.189 269 322.191 269C322.193 269 322.195 269 322.197 269C322.199 269 322.201 269 322.203 269C322.205 269 322.207 269 322.209 269C322.211 269 322.213 269 322.215 269C322.217 269 322.219 269 322.221 269C322.223 269 322.225 269 322.227 269C322.229 269 322.23 269 322.232 269C322.234 269 322.236 269 322.238 269C322.24 269 322.242 269 322.244 269C322.246 269 322.248 269 322.25 269V265C322.248 265 322.246 265 322.244 265C322.242 265 322.24 265 322.238 265C322.236 265 322.234 265 322.232 265C322.23 265 322.229 265 322.227 265C322.225 265 322.223 265 322.221 265C322.219 265 322.217 265 322.215 265C322.213 265 322.211 265 322.209 265C322.207 265 322.205 265 322.203 265C322.201 265 322.199 265 322.197 265C322.195 265 322.193 265 322.191 265C322.189 265 322.188 265 322.186 265C322.184 265 322.182 265 322.18 265C322.178 265 322.176 265 322.174 265C322.172 265 322.17 265 322.168 265C322.166 265 322.164 265 322.162 265C322.16 265 322.158 265 322.156 265C322.154 265 322.152 265 322.15 265C322.148 265 322.146 265 322.145 265C322.143 265 322.141 265 322.139 265C322.137 265 322.135 265 322.133 265C322.131 265 322.129 265 322.127 265C322.125 265 322.123 265 322.121 265C322.119 265 322.117 265 322.115 265C322.113 265 322.111 265 322.109 265C322.107 265 322.105 265 322.104 265C322.102 265 322.1 265 322.098 265C322.096 265 322.094 265 322.092 265C322.09 265 322.088 265 322.086 265C322.084 265 322.082 265 322.08 265C322.078 265 322.076 265 322.074 265C322.072 265 322.07 265 322.068 265C322.066 265 322.064 265 322.063 265C322.061 265 322.059 265 322.057 265C322.055 265 322.053 265 322.051 265C322.049 265 322.047 265 322.045 265C322.043 265 322.041 265 322.039 265C322.037 265 322.035 265 322.033 265C322.031 265 322.029 265 322.027 265C322.025 265 322.023 265 322.021 265C322.02 265 322.018 265 322.016 265C322.014 265 322.012 265 322.01 265C322.008 265 322.006 265 322.004 265C322.002 265 322 265 321.998 265C321.996 265 321.994 265 321.992 265C321.99 265 321.988 265 321.986 265C321.984 265 321.982 265 321.98 265C321.979 265 321.977 265 321.975 265C321.973 265 321.971 265 321.969 265C321.967 265 321.965 265 321.963 265C321.961 265 321.959 265 321.957 265C321.955 265 321.953 265 321.951 265C321.949 265 321.947 265 321.945 265C321.943 265 321.941 265 321.939 265C321.938 265 321.936 265 321.934 265C321.932 265 321.93 265 321.928 265C321.926 265 321.924 265 321.922 265C321.92 265 321.918 265 321.916 265C321.914 265 321.912 265 321.91 265C321.908 265 321.906 265 321.904 265C321.902 265 321.9 265 321.898 265C321.896 265 321.895 265 321.893 265C321.891 265 321.889 265 321.887 265C321.885 265 321.883 265 321.881 265C321.879 265 321.877 265 321.875 265C321.873 265 321.871 265 321.869 265C321.867 265 321.865 265 321.863 265C321.861 265 321.859 265 321.857 265C321.855 265 321.854 265 321.852 265C321.85 265 321.848 265 321.846 265C321.844 265 321.842 265 321.84 265C321.838 265 321.836 265 321.834 265C321.832 265 321.83 265 321.828 265C321.826 265 321.824 265 321.822 265C321.82 265 321.818 265 321.816 265C321.814 265 321.813 265 321.811 265C321.809 265 321.807 265 321.805 265C321.803 265 321.801 265 321.799 265C321.797 265 321.795 265 321.793 265C321.791 265 321.789 265 321.787 265C321.785 265 321.783 265 321.781 265C321.779 265 321.777 265 321.775 265C321.773 265 321.771 265 321.77 265C321.768 265 321.766 265 321.764 265C321.762 265 321.76 265 321.758 265C321.756 265 321.754 265 321.752 265C321.75 265 321.748 265 321.746 265C321.744 265 321.742 265 321.74 265C321.738 265 321.736 265 321.734 265C321.732 265 321.73 265 321.729 265C321.727 265 321.725 265 321.723 265C321.721 265 321.719 265 321.717 265C321.715 265 321.713 265 321.711 265C321.709 265 321.707 265 321.705 265C321.703 265 321.701 265 321.699 265C321.697 265 321.695 265 321.693 265C321.691 265 321.689 265 321.688 265C321.686 265 321.684 265 321.682 265C321.68 265 321.678 265 321.676 265C321.674 265 321.672 265 321.67 265C321.668 265 321.666 265 321.664 265C321.662 265 321.66 265 321.658 265C321.656 265 321.654 265 321.652 265C321.65 265 321.648 265 321.646 265C321.645 265 321.643 265 321.641 265C321.639 265 321.637 265 321.635 265C321.633 265 321.631 265 321.629 265C321.627 265 321.625 265 321.623 265C321.621 265 321.619 265 321.617 265C321.615 265 321.613 265 321.611 265C321.609 265 321.607 265 321.605 265C321.604 265 321.602 265 321.6 265C321.598 265 321.596 265 321.594 265C321.592 265 321.59 265 321.588 265C321.586 265 321.584 265 321.582 265C321.58 265 321.578 265 321.576 265C321.574 265 321.572 265 321.57 265C321.568 265 321.566 265 321.564 265C321.563 265 321.561 265 321.559 265C321.557 265 321.555 265 321.553 265C321.551 265 321.549 265 321.547 265C321.545 265 321.543 265 321.541 265C321.539 265 321.537 265 321.535 265C321.533 265 321.531 265 321.529 265C321.527 265 321.525 265 321.523 265C321.521 265 321.52 265 321.518 265C321.516 265 321.514 265 321.512 265C321.51 265 321.508 265 321.506 265C321.504 265 321.502 265 321.5 265C321.498 265 321.496 265 321.494 265C321.492 265 321.49 265 321.488 265C321.486 265 321.484 265 321.482 265C321.48 265 321.479 265 321.477 265C321.475 265 321.473 265 321.471 265C321.469 265 321.467 265 321.465 265C321.463 265 321.461 265 321.459 265C321.457 265 321.455 265 321.453 265C321.451 265 321.449 265 321.447 265C321.445 265 321.443 265 321.441 265C321.439 265 321.438 265 321.436 265C321.434 265 321.432 265 321.43 265C321.428 265 321.426 265 321.424 265C321.422 265 321.42 265 321.418 265C321.416 265 321.414 265 321.412 265C321.41 265 321.408 265 321.406 265C321.404 265 321.402 265 321.4 265C321.398 265 321.396 265 321.395 265C321.393 265 321.391 265 321.389 265C321.387 265 321.385 265 321.383 265C321.381 265 321.379 265 321.377 265C321.375 265 321.373 265 321.371 265C321.369 265 321.367 265 321.365 265C321.363 265 321.361 265 321.359 265C321.357 265 321.355 265 321.354 265C321.352 265 321.35 265 321.348 265C321.346 265 321.344 265 321.342 265C321.34 265 321.338 265 321.336 265C321.334 265 321.332 265 321.33 265C321.328 265 321.326 265 321.324 265C321.322 265 321.32 265 321.318 265C321.316 265 321.314 265 321.313 265C321.311 265 321.309 265 321.307 265C321.305 265 321.303 265 321.301 265C321.299 265 321.297 265 321.295 265C321.293 265 321.291 265 321.289 265C321.287 265 321.285 265 321.283 265C321.281 265 321.279 265 321.277 265C321.275 265 321.273 265 321.271 265C321.27 265 321.268 265 321.266 265C321.264 265 321.262 265 321.26 265C321.258 265 321.256 265 321.254 265C321.252 265 321.25 265 321.248 265C321.246 265 321.244 265 321.242 265C321.24 265 321.238 265 321.236 265C321.234 265 321.232 265 321.23 265C321.229 265 321.227 265 321.225 265C321.223 265 321.221 265 321.219 265C321.217 265 321.215 265 321.213 265C321.211 265 321.209 265 321.207 265C321.205 265 321.203 265 321.201 265C321.199 265 321.197 265 321.195 265C321.193 265 321.191 265 321.189 265C321.188 265 321.186 265 321.184 265C321.182 265 321.18 265 321.178 265C321.176 265 321.174 265 321.172 265C321.17 265 321.168 265 321.166 265C321.164 265 321.162 265 321.16 265C321.158 265 321.156 265 321.154 265C321.152 265 321.15 265 321.148 265C321.146 265 321.145 265 321.143 265C321.141 265 321.139 265 321.137 265C321.135 265 321.133 265 321.131 265C321.129 265 321.127 265 321.125 265C321.123 265 321.121 265 321.119 265C321.117 265 321.115 265 321.113 265C321.111 265 321.109 265 321.107 265C321.105 265 321.104 265 321.102 265C321.1 265 321.098 265 321.096 265C321.094 265 321.092 265 321.09 265C321.088 265 321.086 265 321.084 265C321.082 265 321.08 265 321.078 265C321.076 265 321.074 265 321.072 265C321.07 265 321.068 265 321.066 265C321.064 265 321.063 265 321.061 265C321.059 265 321.057 265 321.055 265C321.053 265 321.051 265 321.049 265C321.047 265 321.045 265 321.043 265C321.041 265 321.039 265 321.037 265C321.035 265 321.033 265 321.031 265C321.029 265 321.027 265 321.025 265C321.023 265 321.021 265 321.02 265C321.018 265 321.016 265 321.014 265C321.012 265 321.01 265 321.008 265C321.006 265 321.004 265 321.002 265C321 265 320.998 265 320.996 265C320.994 265 320.992 265 320.99 265C320.988 265 320.986 265 320.984 265C320.982 265 320.98 265 320.979 265C320.977 265 320.975 265 320.973 265C320.971 265 320.969 265 320.967 265C320.965 265 320.963 265 320.961 265C320.959 265 320.957 265 320.955 265C320.953 265 320.951 265 320.949 265C320.947 265 320.945 265 320.943 265C320.941 265 320.939 265 320.938 265C320.936 265 320.934 265 320.932 265C320.93 265 320.928 265 320.926 265C320.924 265 320.922 265 320.92 265C320.918 265 320.916 265 320.914 265C320.912 265 320.91 265 320.908 265C320.906 265 320.904 265 320.902 265C320.9 265 320.898 265 320.896 265C320.895 265 320.893 265 320.891 265C320.889 265 320.887 265 320.885 265C320.883 265 320.881 265 320.879 265C320.877 265 320.875 265 320.873 265C320.871 265 320.869 265 320.867 265C320.865 265 320.863 265 320.861 265C320.859 265 320.857 265 320.855 265C320.854 265 320.852 265 320.85 265C320.848 265 320.846 265 320.844 265C320.842 265 320.84 265 320.838 265C320.836 265 320.834 265 320.832 265C320.83 265 320.828 265 320.826 265C320.824 265 320.822 265 320.82 265C320.818 265 320.816 265 320.814 265C320.813 265 320.811 265 320.809 265C320.807 265 320.805 265 320.803 265C320.801 265 320.799 265 320.797 265C320.795 265 320.793 265 320.791 265C320.789 265 320.787 265 320.785 265C320.783 265 320.781 265 320.779 265C320.777 265 320.775 265 320.773 265C320.771 265 320.77 265 320.768 265C320.766 265 320.764 265 320.762 265C320.76 265 320.758 265 320.756 265C320.754 265 320.752 265 320.75 265C320.748 265 320.746 265 320.744 265C320.742 265 320.74 265 320.738 265C320.736 265 320.734 265 320.732 265C320.73 265 320.729 265 320.727 265C320.725 265 320.723 265 320.721 265C320.719 265 320.717 265 320.715 265C320.713 265 320.711 265 320.709 265C320.707 265 320.705 265 320.703 265C320.701 265 320.699 265 320.697 265C320.695 265 320.693 265 320.691 265C320.689 265 320.688 265 320.686 265C320.684 265 320.682 265 320.68 265C320.678 265 320.676 265 320.674 265C320.672 265 320.67 265 320.668 265C320.666 265 320.664 265 320.662 265C320.66 265 320.658 265 320.656 265C320.654 265 320.652 265 320.65 265C320.648 265 320.646 265 320.645 265C320.643 265 320.641 265 320.639 265C320.637 265 320.635 265 320.633 265C320.631 265 320.629 265 320.627 265C320.625 265 320.623 265 320.621 265C320.619 265 320.617 265 320.615 265C320.613 265 320.611 265 320.609 265C320.607 265 320.605 265 320.604 265C320.602 265 320.6 265 320.598 265C320.596 265 320.594 265 320.592 265C320.59 265 320.588 265 320.586 265C320.584 265 320.582 265 320.58 265C320.578 265 320.576 265 320.574 265C320.572 265 320.57 265 320.568 265C320.566 265 320.564 265 320.563 265C320.561 265 320.559 265 320.557 265C320.555 265 320.553 265 320.551 265C320.549 265 320.547 265 320.545 265C320.543 265 320.541 265 320.539 265C320.537 265 320.535 265 320.533 265C320.531 265 320.529 265 320.527 265C320.525 265 320.523 265 320.521 265C320.52 265 320.518 265 320.516 265C320.514 265 320.512 265 320.51 265C320.508 265 320.506 265 320.504 265C320.502 265 320.5 265 320.498 265C320.496 265 320.494 265 320.492 265C320.49 265 320.488 265 320.486 265C320.484 265 320.482 265 320.48 265C320.479 265 320.477 265 320.475 265C320.473 265 320.471 265 320.469 265C320.467 265 320.465 265 320.463 265C320.461 265 320.459 265 320.457 265C320.455 265 320.453 265 320.451 265C320.449 265 320.447 265 320.445 265C320.443 265 320.441 265 320.439 265C320.438 265 320.436 265 320.434 265C320.432 265 320.43 265 320.428 265C320.426 265 320.424 265 320.422 265C320.42 265 320.418 265 320.416 265C320.414 265 320.412 265 320.41 265C320.408 265 320.406 265 320.404 265C320.402 265 320.4 265 320.398 265C320.396 265 320.395 265 320.393 265C320.391 265 320.389 265 320.387 265C320.385 265 320.383 265 320.381 265C320.379 265 320.377 265 320.375 265C320.373 265 320.371 265 320.369 265C320.367 265 320.365 265 320.363 265C320.361 265 320.359 265 320.357 265C320.355 265 320.354 265 320.352 265C320.35 265 320.348 265 320.346 265C320.344 265 320.342 265 320.34 265C320.338 265 320.336 265 320.334 265C320.332 265 320.33 265 320.328 265C320.326 265 320.324 265 320.322 265C320.32 265 320.318 265 320.316 265C320.314 265 320.313 265 320.311 265C320.309 265 320.307 265 320.305 265C320.303 265 320.301 265 320.299 265C320.297 265 320.295 265 320.293 265C320.291 265 320.289 265 320.287 265C320.285 265 320.283 265 320.281 265C320.279 265 320.277 265 320.275 265C320.273 265 320.271 265 320.27 265C320.268 265 320.266 265 320.264 265C320.262 265 320.26 265 320.258 265C320.256 265 320.254 265 320.252 265C320.25 265 320.248 265 320.246 265C320.244 265 320.242 265 320.24 265C320.238 265 320.236 265 320.234 265C320.232 265 320.23 265 320.229 265C320.227 265 320.225 265 320.223 265C320.221 265 320.219 265 320.217 265C320.215 265 320.213 265 320.211 265C320.209 265 320.207 265 320.205 265C320.203 265 320.201 265 320.199 265C320.197 265 320.195 265 320.193 265C320.191 265 320.189 265 320.188 265C320.186 265 320.184 265 320.182 265C320.18 265 320.178 265 320.176 265C320.174 265 320.172 265 320.17 265C320.168 265 320.166 265 320.164 265C320.162 265 320.16 265 320.158 265C320.156 265 320.154 265 320.152 265C320.15 265 320.148 265 320.146 265C320.145 265 320.143 265 320.141 265C320.139 265 320.137 265 320.135 265C320.133 265 320.131 265 320.129 265C320.127 265 320.125 265 320.123 265C320.121 265 320.119 265 320.117 265C320.115 265 320.113 265 320.111 265C320.109 265 320.107 265 320.105 265C320.104 265 320.102 265 320.1 265C320.098 265 320.096 265 320.094 265C320.092 265 320.09 265 320.088 265C320.086 265 320.084 265 320.082 265C320.08 265 320.078 265 320.076 265C320.074 265 320.072 265 320.07 265C320.068 265 320.066 265 320.064 265C320.063 265 320.061 265 320.059 265C320.057 265 320.055 265 320.053 265C320.051 265 320.049 265 320.047 265C320.045 265 320.043 265 320.041 265C320.039 265 320.037 265 320.035 265C320.033 265 320.031 265 320.029 265C320.027 265 320.025 265 320.023 265C320.021 265 320.02 265 320.018 265C320.016 265 320.014 265 320.012 265C320.01 265 320.008 265 320.006 265C320.004 265 320.002 265 320 265C319.998 265 319.996 265 319.994 265C319.992 265 319.99 265 319.988 265C319.986 265 319.984 265 319.982 265C319.98 265 319.979 265 319.977 265C319.975 265 319.973 265 319.971 265C319.969 265 319.967 265 319.965 265C319.963 265 319.961 265 319.959 265C319.957 265 319.955 265 319.953 265C319.951 265 319.949 265 319.947 265C319.945 265 319.943 265 319.941 265C319.939 265 319.938 265 319.936 265C319.934 265 319.932 265 319.93 265C319.928 265 319.926 265 319.924 265C319.922 265 319.92 265 319.918 265C319.916 265 319.914 265 319.912 265C319.91 265 319.908 265 319.906 265C319.904 265 319.902 265 319.9 265C319.898 265 319.896 265 319.895 265C319.893 265 319.891 265 319.889 265C319.887 265 319.885 265 319.883 265C319.881 265 319.879 265 319.877 265C319.875 265 319.873 265 319.871 265C319.869 265 319.867 265 319.865 265C319.863 265 319.861 265 319.859 265C319.857 265 319.855 265 319.854 265C319.852 265 319.85 265 319.848 265C319.846 265 319.844 265 319.842 265C319.84 265 319.838 265 319.836 265C319.834 265 319.832 265 319.83 265C319.828 265 319.826 265 319.824 265C319.822 265 319.82 265 319.818 265C319.816 265 319.814 265 319.813 265C319.811 265 319.809 265 319.807 265C319.805 265 319.803 265 319.801 265C319.799 265 319.797 265 319.795 265C319.793 265 319.791 265 319.789 265C319.787 265 319.785 265 319.783 265C319.781 265 319.779 265 319.777 265C319.775 265 319.773 265 319.771 265C319.77 265 319.768 265 319.766 265C319.764 265 319.762 265 319.76 265C319.758 265 319.756 265 319.754 265C319.752 265 319.75 265 319.748 265C319.746 265 319.744 265 319.742 265C319.74 265 319.738 265 319.736 265C319.734 265 319.732 265 319.73 265C319.729 265 319.727 265 319.725 265C319.723 265 319.721 265 319.719 265C319.717 265 319.715 265 319.713 265C319.711 265 319.709 265 319.707 265C319.705 265 319.703 265 319.701 265C319.699 265 319.697 265 319.695 265C319.693 265 319.691 265 319.689 265C319.688 265 319.686 265 319.684 265C319.682 265 319.68 265 319.678 265C319.676 265 319.674 265 319.672 265C319.67 265 319.668 265 319.666 265C319.664 265 319.662 265 319.66 265C319.658 265 319.656 265 319.654 265C319.652 265 319.65 265 319.648 265C319.646 265 319.645 265 319.643 265C319.641 265 319.639 265 319.637 265C319.635 265 319.633 265 319.631 265C319.629 265 319.627 265 319.625 265C319.623 265 319.621 265 319.619 265C319.617 265 319.615 265 319.613 265C319.611 265 319.609 265 319.607 265C319.605 265 319.604 265 319.602 265C319.6 265 319.598 265 319.596 265C319.594 265 319.592 265 319.59 265C319.588 265 319.586 265 319.584 265C319.582 265 319.58 265 319.578 265C319.576 265 319.574 265 319.572 265C319.57 265 319.568 265 319.566 265C319.564 265 319.563 265 319.561 265C319.559 265 319.557 265 319.555 265C319.553 265 319.551 265 319.549 265C319.547 265 319.545 265 319.543 265C319.541 265 319.539 265 319.537 265C319.535 265 319.533 265 319.531 265C319.529 265 319.527 265 319.525 265C319.523 265 319.521 265 319.52 265C319.518 265 319.516 265 319.514 265C319.512 265 319.51 265 319.508 265C319.506 265 319.504 265 319.502 265C319.5 265 319.498 265 319.496 265C319.494 265 319.492 265 319.49 265C319.488 265 319.486 265 319.484 265C319.482 265 319.48 265 319.479 265C319.477 265 319.475 265 319.473 265C319.471 265 319.469 265 319.467 265C319.465 265 319.463 265 319.461 265C319.459 265 319.457 265 319.455 265C319.453 265 319.451 265 319.449 265C319.447 265 319.445 265 319.443 265C319.441 265 319.439 265 319.438 265C319.436 265 319.434 265 319.432 265C319.43 265 319.428 265 319.426 265C319.424 265 319.422 265 319.42 265C319.418 265 319.416 265 319.414 265C319.412 265 319.41 265 319.408 265C319.406 265 319.404 265 319.402 265C319.4 265 319.398 265 319.396 265C319.395 265 319.393 265 319.391 265C319.389 265 319.387 265 319.385 265C319.383 265 319.381 265 319.379 265C319.377 265 319.375 265 319.373 265C319.371 265 319.369 265 319.367 265C319.365 265 319.363 265 319.361 265C319.359 265 319.357 265 319.355 265C319.354 265 319.352 265 319.35 265C319.348 265 319.346 265 319.344 265C319.342 265 319.34 265 319.338 265C319.336 265 319.334 265 319.332 265C319.33 265 319.328 265 319.326 265C319.324 265 319.322 265 319.32 265C319.318 265 319.316 265 319.314 265C319.313 265 319.311 265 319.309 265C319.307 265 319.305 265 319.303 265C319.301 265 319.299 265 319.297 265C319.295 265 319.293 265 319.291 265C319.289 265 319.287 265 319.285 265C319.283 265 319.281 265 319.279 265C319.277 265 319.275 265 319.273 265C319.271 265 319.27 265 319.268 265C319.266 265 319.264 265 319.262 265C319.26 265 319.258 265 319.256 265C319.254 265 319.252 265 319.25 265V269ZM322.371 268.996C339.559 267.955 354.396 258.318 362.721 244.27L359.279 242.23C351.604 255.182 337.941 264.045 322.129 265.004L322.371 268.996ZM362.751 244.216C366.892 236.71 369.5 228.131 369.5 218.75H365.5C365.5 227.369 363.108 235.29 359.249 242.284L362.751 244.216ZM369.5 218.75C369.5 211.477 367.943 204.165 364.789 197.856L361.211 199.644C364.057 205.335 365.5 212.023 365.5 218.75H369.5ZM364.838 197.962C362.468 192.431 358.804 187.475 354.664 183.336L351.836 186.164C355.696 190.025 359.032 194.569 361.162 199.538L364.838 197.962Z" fill="url(#paint5_radial_371_22)"/>
<defs>
<linearGradient id="paint0_linear_371_22" x1="-1.10345" y1="408.727" x2="355.683" y2="372.807" gradientUnits="userSpaceOnUse">
<stop offset="0.150291" stop-color="#54DDBA"/>
<stop offset="1" stop-color="#4D114F"/>
</linearGradient>
<radialGradient id="paint1_radial_371_22" cx="0" cy="0" r="1" gradientUnits="userSpaceOnUse" gradientTransform="translate(235 462) rotate(30.835) scale(121.121 350.787)">
<stop stop-color="#D9F0B6"/>
<stop offset="0.506695" stop-color="#FFC1C3"/>
<stop offset="1" stop-color="#699EFF"/>
</radialGradient>
<radialGradient id="paint2_radial_371_22" cx="0" cy="0" r="1" gradientUnits="userSpaceOnUse" gradientTransform="translate(64 192) rotate(120.835) scale(121.121 350.787)">
<stop stop-color="#D9F0B6"/>
<stop offset="0.506695" stop-color="#FFC1C3"/>
<stop offset="1" stop-color="#699EFF"/>
</radialGradient>
<radialGradient id="paint3_radial_371_22" cx="0" cy="0" r="1" gradientUnits="userSpaceOnUse" gradientTransform="translate(502 296) rotate(-59.165) scale(121.121 350.787)">
<stop stop-color="#D9F0B6"/>
<stop offset="0.506695" stop-color="#FFC1C3"/>
<stop offset="1" stop-color="#699EFF"/>
</radialGradient>
<linearGradient id="paint4_linear_371_22" x1="-217.299" y1="186.789" x2="77.5096" y2="632.101" gradientUnits="userSpaceOnUse">
<stop offset="0.0719578" stop-color="#54DDBA"/>
<stop offset="1" stop-color="#4D114F"/>
</linearGradient>
<radialGradient id="paint5_radial_371_22" cx="0" cy="0" r="1" gradientUnits="userSpaceOnUse" gradientTransform="translate(214 79) rotate(51.8686) scale(268.84 859.249)">
<stop stop-color="#D9F0B6"/>
<stop offset="0.506695" stop-color="#FFC1C3"/>
<stop offset="1" stop-color="#699EFF"/>
</radialGradient>
</defs>
</svg>
