<svg width="566" height="525" viewBox="0 0 566 525" fill="none" xmlns="http://www.w3.org/2000/svg">
<rect x="47.7574" y="242.9" width="336.785" height="336.78" transform="rotate(-45 47.7574 242.9)" stroke="url(#paint0_linear_371_14)" stroke-width="6"/>
<path d="M237.635 470.549L237.637 470.547L244.984 463.546C247.848 460.817 252.485 460.82 255.313 463.544L255.315 463.546L286.655 493.408L287 493.737L287.345 493.408L318.685 463.546C321.549 460.817 326.185 460.82 329.014 463.544L329.016 463.546L336.363 470.547C339.213 473.263 339.211 477.64 336.365 480.323L336.363 480.324L292.149 522.454L292.149 522.454L292.145 522.458C289.351 525.179 284.716 525.184 281.851 522.454L237.637 480.324C234.787 477.608 234.789 473.231 237.635 470.549L237.635 470.549Z" stroke="url(#paint1_radial_371_14)"/>
<path d="M54.4513 193.635L54.4531 193.637L61.4541 200.984C64.183 203.848 64.1804 208.485 61.4559 211.313L61.4541 211.315L31.5916 242.655L31.2629 243L31.5916 243.345L61.4541 274.685C64.183 277.549 64.1804 282.185 61.4559 285.014L61.4541 285.016L54.4531 292.363C51.7372 295.213 47.36 295.211 44.6775 292.365L44.6756 292.363L2.54591 248.149L2.54594 248.149L2.54219 248.145C-0.178719 245.351 -0.183975 240.716 2.54591 237.851L44.6756 193.637C47.3916 190.787 51.7688 190.789 54.4513 193.635L54.4513 193.635Z" stroke="url(#paint2_radial_371_14)"/>
<path d="M511.549 292.365L511.547 292.363L504.546 285.016C501.817 282.152 501.82 277.515 504.544 274.687L504.546 274.685L534.408 243.345L534.737 243L534.408 242.655L504.546 211.315C501.817 208.451 501.82 203.815 504.544 200.986L504.546 200.984L511.547 193.637C514.263 190.787 518.64 190.789 521.323 193.635L521.324 193.637L563.454 237.851L563.454 237.851L563.458 237.855C566.179 240.649 566.184 245.284 563.454 248.149L521.324 292.363C518.608 295.213 514.231 295.211 511.549 292.365L511.549 292.365Z" stroke="url(#paint3_radial_371_14)"/>
<path d="M89 277H483L393 368H175L89 277Z" fill="url(#paint4_linear_371_14)"/>
<path d="M240.736 319.736C247.179 319.992 251.893 321.4 254.88 323.96C257.909 326.52 259.424 329.997 259.424 334.392C259.424 336.355 259.083 338.168 258.4 339.832C257.76 341.496 256.757 342.925 255.392 344.12C254.069 345.315 252.384 346.253 250.336 346.936C248.288 347.619 245.856 347.96 243.04 347.96C241.931 347.96 240.8 347.875 239.648 347.704C238.496 347.533 237.429 347.32 236.448 347.064C235.467 346.808 234.592 346.552 233.824 346.296C233.056 346.04 232.501 345.827 232.16 345.656L233.312 340.472C234.037 340.813 235.211 341.261 236.832 341.816C238.496 342.371 240.523 342.648 242.912 342.648C244.832 342.648 246.432 342.435 247.712 342.008C249.035 341.581 250.101 341.005 250.912 340.28C251.723 339.555 252.299 338.723 252.64 337.784C253.024 336.803 253.216 335.779 253.216 334.712C253.216 333.091 252.939 331.661 252.384 330.424C251.829 329.144 250.848 328.077 249.44 327.224C248.032 326.371 246.155 325.731 243.808 325.304C241.461 324.835 238.496 324.6 234.912 324.6C235.168 322.509 235.36 320.547 235.488 318.712C235.659 316.877 235.808 315.085 235.936 313.336C236.064 311.587 236.171 309.859 236.256 308.152C236.341 306.403 236.427 304.568 236.512 302.648H257.888V307.704H241.696C241.653 308.344 241.589 309.219 241.504 310.328C241.419 311.395 241.333 312.525 241.248 313.72C241.163 314.872 241.077 316.003 240.992 317.112C240.907 318.221 240.821 319.096 240.736 319.736ZM267.325 324.792C267.325 317.368 268.626 311.651 271.229 307.64C273.874 303.629 277.522 301.624 282.173 301.624C286.824 301.624 290.45 303.629 293.053 307.64C295.698 311.651 297.021 317.368 297.021 324.792C297.021 332.216 295.698 337.933 293.053 341.944C290.45 345.955 286.824 347.96 282.173 347.96C277.522 347.96 273.874 345.955 271.229 341.944C268.626 337.933 267.325 332.216 267.325 324.792ZM290.749 324.792C290.749 322.36 290.6 320.056 290.301 317.88C290.045 315.704 289.576 313.805 288.893 312.184C288.253 310.563 287.378 309.283 286.269 308.344C285.16 307.363 283.794 306.872 282.173 306.872C280.552 306.872 279.186 307.363 278.077 308.344C276.968 309.283 276.072 310.563 275.389 312.184C274.749 313.805 274.28 315.704 273.981 317.88C273.725 320.056 273.597 322.36 273.597 324.792C273.597 327.224 273.725 329.528 273.981 331.704C274.28 333.88 274.749 335.779 275.389 337.4C276.072 339.021 276.968 340.323 278.077 341.304C279.186 342.243 280.552 342.712 282.173 342.712C283.794 342.712 285.16 342.243 286.269 341.304C287.378 340.323 288.253 339.021 288.893 337.4C289.576 335.779 290.045 333.88 290.301 331.704C290.6 329.528 290.749 327.224 290.749 324.792ZM303.45 324.792C303.45 317.368 304.751 311.651 307.354 307.64C309.999 303.629 313.647 301.624 318.298 301.624C322.949 301.624 326.575 303.629 329.178 307.64C331.823 311.651 333.146 317.368 333.146 324.792C333.146 332.216 331.823 337.933 329.178 341.944C326.575 345.955 322.949 347.96 318.298 347.96C313.647 347.96 309.999 345.955 307.354 341.944C304.751 337.933 303.45 332.216 303.45 324.792ZM326.874 324.792C326.874 322.36 326.725 320.056 326.426 317.88C326.17 315.704 325.701 313.805 325.018 312.184C324.378 310.563 323.503 309.283 322.394 308.344C321.285 307.363 319.919 306.872 318.298 306.872C316.677 306.872 315.311 307.363 314.202 308.344C313.093 309.283 312.197 310.563 311.514 312.184C310.874 313.805 310.405 315.704 310.106 317.88C309.85 320.056 309.722 322.36 309.722 324.792C309.722 327.224 309.85 329.528 310.106 331.704C310.405 333.88 310.874 335.779 311.514 337.4C312.197 339.021 313.093 340.323 314.202 341.304C315.311 342.243 316.677 342.712 318.298 342.712C319.919 342.712 321.285 342.243 322.394 341.304C323.503 340.323 324.378 339.021 325.018 337.4C325.701 335.779 326.17 333.88 326.426 331.704C326.725 329.528 326.874 327.224 326.874 324.792Z" fill="#0A1E3C" fill-opacity="0.97"/>
<path d="M342.25 181.25L343.664 182.664L343.695 182.633L343.724 182.601L342.25 181.25ZM349.5 171.75L351.236 172.742L351.25 172.719L351.263 172.694L349.5 171.75ZM349.5 125L351.248 124.029L351.24 124.013L351.231 123.998L349.5 125ZM208.75 101V99H206.75V101H208.75ZM208.75 125H206.75V127H208.75V125ZM215 195.5L213.269 194.498L213.264 194.508L215 195.5ZM215 242.25L216.731 241.248L216.726 241.239L216.721 241.23L215 242.25ZM355.75 266V268H357.75V266H355.75ZM355.75 242.25H357.75V240.25H355.75V242.25ZM256.25 240.25C244.341 240.25 234.75 230.632 234.75 219H230.75C230.75 232.868 242.159 244.25 256.25 244.25V240.25ZM234.75 219C234.75 207.105 244.355 197.5 256.25 197.5V193.5C242.145 193.5 230.75 204.895 230.75 219H234.75ZM256.25 197.5H308V193.5H256.25V197.5ZM308 197.5C322.061 197.5 334.562 191.767 343.664 182.664L340.836 179.836C332.438 188.233 320.939 193.5 308 193.5V197.5ZM343.724 182.601C346.509 179.564 349.126 176.435 351.236 172.742L347.764 170.758C345.874 174.065 343.491 176.936 340.776 179.899L343.724 182.601ZM351.263 172.694C355.134 165.468 357.75 157.145 357.75 148.25H353.75C353.75 156.355 351.366 164.032 347.737 170.806L351.263 172.694ZM357.75 148.25C357.75 139.359 355.136 131.027 351.248 124.029L347.752 125.971C351.364 132.473 353.75 140.141 353.75 148.25H357.75ZM351.231 123.998C342.641 109.161 326.499 99 308 99V103C325.001 103 339.859 112.338 347.769 126.002L351.231 123.998ZM308 99H208.75V103H308V99ZM206.75 101V125H210.75V101H206.75ZM208.75 127H308V123H208.75V127ZM308 127C319.937 127 329.75 136.646 329.75 148.25H333.75C333.75 134.354 322.063 123 308 123V127ZM329.75 148.25C329.75 160.118 319.923 169.75 308 169.75V173.75C322.077 173.75 333.75 162.382 333.75 148.25H329.75ZM308 169.75H256.25V173.75H308V169.75ZM256.25 169.75C238.015 169.75 221.866 179.649 213.269 194.498L216.731 196.502C224.634 182.851 239.485 173.75 256.25 173.75V169.75ZM213.264 194.508C209.096 201.8 206.75 210.141 206.75 219H210.75C210.75 210.859 212.904 203.2 216.736 196.492L213.264 194.508ZM206.75 219C206.75 227.854 209.094 236.206 213.279 243.27L216.721 241.23C212.906 234.794 210.75 227.146 210.75 219H206.75ZM213.269 243.252C221.866 258.101 238.015 268 256.25 268V264C239.485 264 224.634 254.899 216.731 241.248L213.269 243.252ZM256.25 268H355.75V264H256.25V268ZM357.75 266V242.25H353.75V266H357.75ZM355.75 240.25H256.25V244.25H355.75V240.25Z" fill="url(#paint5_radial_371_14)"/>
<defs>
<linearGradient id="paint0_linear_371_14" x1="-1.10345" y1="407.727" x2="355.683" y2="371.807" gradientUnits="userSpaceOnUse">
<stop offset="0.150291" stop-color="#54DDBA"/>
<stop offset="1" stop-color="#4D114F"/>
</linearGradient>
<radialGradient id="paint1_radial_371_14" cx="0" cy="0" r="1" gradientUnits="userSpaceOnUse" gradientTransform="translate(235 461) rotate(30.835) scale(121.121 350.787)">
<stop stop-color="#D9F0B6"/>
<stop offset="0.506695" stop-color="#FFC1C3"/>
<stop offset="1" stop-color="#699EFF"/>
</radialGradient>
<radialGradient id="paint2_radial_371_14" cx="0" cy="0" r="1" gradientUnits="userSpaceOnUse" gradientTransform="translate(64 191) rotate(120.835) scale(121.121 350.787)">
<stop stop-color="#D9F0B6"/>
<stop offset="0.506695" stop-color="#FFC1C3"/>
<stop offset="1" stop-color="#699EFF"/>
</radialGradient>
<radialGradient id="paint3_radial_371_14" cx="0" cy="0" r="1" gradientUnits="userSpaceOnUse" gradientTransform="translate(502 295) rotate(-59.165) scale(121.121 350.787)">
<stop stop-color="#D9F0B6"/>
<stop offset="0.506695" stop-color="#FFC1C3"/>
<stop offset="1" stop-color="#699EFF"/>
</radialGradient>
<linearGradient id="paint4_linear_371_14" x1="-217.299" y1="185.789" x2="77.5096" y2="631.101" gradientUnits="userSpaceOnUse">
<stop offset="0.0719578" stop-color="#54DDBA"/>
<stop offset="1" stop-color="#4D114F"/>
</linearGradient>
<radialGradient id="paint5_radial_371_14" cx="0" cy="0" r="1" gradientUnits="userSpaceOnUse" gradientTransform="translate(197 78) rotate(51.0399) scale(271.956 874.989)">
<stop stop-color="#D9F0B6"/>
<stop offset="0.506695" stop-color="#FFC1C3"/>
<stop offset="1" stop-color="#699EFF"/>
</radialGradient>
</defs>
</svg>
