<svg width="64" height="52" viewBox="0 0 64 52" fill="none" xmlns="http://www.w3.org/2000/svg">
<path d="M31.1515 13.4902L10.6675 31.1176V50.1427C10.6675 50.6353 10.8548 51.1077 11.1882 51.456C11.5215 51.8043 11.9737 52 12.4451 52L24.8953 51.9663C25.3652 51.9639 25.8151 51.7671 26.1465 51.4191C26.478 51.071 26.6641 50.6 26.6641 50.109V38.9986C26.6641 38.506 26.8513 38.0335 27.1847 37.6852C27.5181 37.3369 27.9702 37.1412 28.4417 37.1412H35.5523C36.0237 37.1412 36.4759 37.3369 36.8092 37.6852C37.1426 38.0335 37.3299 38.506 37.3299 38.9986V50.1009C37.3292 50.3453 37.3746 50.5874 37.4636 50.8134C37.5526 51.0394 37.6834 51.2449 37.8486 51.418C38.0137 51.591 38.2099 51.7284 38.426 51.8221C38.642 51.9158 38.8736 51.964 39.1075 51.964L51.5532 52C52.0247 52 52.4769 51.8043 52.8102 51.456C53.1436 51.1077 53.3309 50.6353 53.3309 50.1427V31.1048L32.8514 13.4902C32.6106 13.2874 32.3107 13.1768 32.0014 13.1768C31.6922 13.1768 31.3922 13.2874 31.1515 13.4902ZM63.5079 25.4712L54.2197 17.4719V1.39301C54.2197 1.02356 54.0792 0.669245 53.8292 0.408004C53.5792 0.146764 53.2401 0 52.8865 0H46.6647C46.3111 0 45.972 0.146764 45.722 0.408004C45.472 0.669245 45.3315 1.02356 45.3315 1.39301V9.8219L35.3845 1.27112C34.4299 0.450383 33.2321 0.00164067 31.9959 0.00164067C30.7596 0.00164067 29.5618 0.450383 28.6072 1.27112L0.48385 25.4712C0.348847 25.5878 0.237153 25.7311 0.15515 25.8928C0.0731476 26.0545 0.0224436 26.2315 0.00593527 26.4137C-0.010573 26.5959 0.00743794 26.7797 0.058939 26.9546C0.11044 27.1295 0.194422 27.2921 0.306086 27.4331L3.1392 31.0317C3.25056 31.1732 3.38753 31.2903 3.54228 31.3764C3.69702 31.4625 3.8665 31.5159 4.04101 31.5334C4.21552 31.551 4.39163 31.5325 4.55927 31.4788C4.7269 31.4252 4.88277 31.3375 5.01795 31.2209L31.1515 8.73071C31.3922 8.52794 31.6922 8.41736 32.0014 8.41736C32.3107 8.41736 32.6106 8.52794 32.8514 8.73071L58.986 31.2209C59.1209 31.3376 59.2766 31.4253 59.444 31.4791C59.6114 31.5329 59.7873 31.5518 59.9617 31.5345C60.136 31.5173 60.3054 31.4643 60.4602 31.3786C60.615 31.2929 60.7521 31.1762 60.8636 31.0352L63.6968 27.4365C63.8083 27.2947 63.8919 27.1313 63.9428 26.9556C63.9937 26.78 64.0109 26.5955 63.9933 26.4129C63.9758 26.2302 63.9238 26.053 63.8405 25.8914C63.7572 25.7298 63.6442 25.587 63.5079 25.4712Z" fill="#B9CDC9"/>
</svg>
