<svg width="55" height="57" viewBox="0 0 55 57" fill="none" xmlns="http://www.w3.org/2000/svg">
<path d="M39.5205 36.7116C39.0242 37.3016 38.4699 37.836 37.8125 38.2312V40.7851C44.9582 41.8249 49.8438 43.9078 49.8438 46.3125C49.8438 49.7559 39.8406 52.5469 27.5 52.5469C15.1594 52.5469 5.15625 49.7559 5.15625 46.3125C5.15625 43.9078 10.0418 41.826 17.1875 40.7851V38.2312C16.5301 37.836 15.9758 37.3016 15.4795 36.7116C6.32393 38.4461 0 42.0876 0 46.3125C0 52.2151 12.3127 57 27.5 57C42.6873 57 55 52.2151 55 46.3125C55 42.0876 48.6761 38.4461 39.5205 36.7116ZM27.5 14.25C31.2974 14.25 34.375 11.0604 34.375 7.125C34.375 3.18955 31.2974 0 27.5 0C23.7026 0 20.625 3.18955 20.625 7.125C20.625 11.0604 23.7026 14.25 27.5 14.25ZM20.625 35.625V46.3125C20.625 48.2797 22.1644 49.875 24.0625 49.875H30.9375C32.8356 49.875 34.375 48.2797 34.375 46.3125V35.625C36.2731 35.625 37.8125 34.0297 37.8125 32.0625V21.375C37.8125 18.4237 35.504 16.0312 32.6562 16.0312H31.3887C30.1995 16.5912 28.89 16.9219 27.5 16.9219C26.11 16.9219 24.8005 16.5912 23.6113 16.0312H22.3438C19.496 16.0312 17.1875 18.4237 17.1875 21.375V32.0625C17.1875 34.0297 18.7269 35.625 20.625 35.625Z" fill="#B9CDC9"/>
</svg>
